<?xml version="1.0" encoding="UTF-8"?>
<svg width="14.876mm" height="11.697mm" version="1.1" viewBox="0 0 14.876 11.697" xmlns="http://www.w3.org/2000/svg">
 <g transform="translate(-116.41 -101.9)">
  <g transform="matrix(.26458 0 0 .26458 10.075 23.614)">
   <path class="st0" d="m402 317v-4c2.1-8 8.9-9.6 15.6-11.2 3.2-0.2 6.5-0.6 9.7 0.4 0.5 0.2 0.8 0.5 1.1 1-2.7 3.2-6.7 4.9-9.5 8.1-0.1 0.4-0.3 0.8-0.6 1.2-1.7 1.6-3.6 3.1-4.3 5.5-1.3 2.5-1.2 5.7-3.9 7.4-5.3-0.4-7.1-4-8.1-8.4z" fill="#1390da"/>
   <path class="st1" d="m416.9 303.1c-6.1 1.7-11.8 3.8-14.9 9.9 0-4.8 0.1-9.7-0.1-14.5-0.1-2.2 0.4-2.6 2.6-2.6 7.8 0.2 15.7 0.1 23.5 0.1-0.7 3.3-4.2 2.3-6.1 4-1.4 1.3-3.3 2-5 3.1z" fill="#fdfefe"/>
   <g fill="#fcfdfe">
    <path class="st2" d="m458 319c0 6.2-0.1 12.3 0.1 18.5 0.1 2.2-0.4 2.6-2.6 2.6-8.2-0.2-16.3-0.1-24.5-0.1-0.3-0.4-0.3-0.9 0-1.3 2.5-1.5 5.5-1.8 8.2-2.9 5.2-1.9 9.9-4.6 13.2-9.3 2.5-2 1.6-6.6 5.6-7.5z"/>
    <path class="st2" d="m402 317c1.7 3.6 4.2 6.5 7.9 8.3 0.3 0.3 0.6 0.7 0.6 1.2-0.6 3.5-0.2 6.6 3.1 8.7 2.2 1.8 5.2 1.8 7.4 3.5 0.3 0.4 0.3 0.9-0.1 1.3-5.6 0-11.2-0.1-16.8 0.1-1.9 0.1-2.3-0.5-2.2-2.3 0.2-7 0.1-13.9 0.1-20.8z"/>
    <path class="st2" d="m438 296c6 0 12 0.1 18-0.1 1.7 0 2.1 0.3 2.1 2.1-0.2 5.3-0.1 10.7-0.1 16-2.3 0.2-2.1-2-2.9-3.1-0.6-1.6-1.5-3-2.5-4.4-0.7-1.1-1.3-2.1-2.3-2.9-1.5-1.1-3.2-1.8-4.7-2.8-1.4-1-3-1.5-4.7-2.1-1.1-0.4-2.2-0.7-3-1.5-0.3-0.4-0.2-0.8 0.1-1.2z"/>
   </g>
   <path class="st3" d="m455.9 310c1.1 1.1 0.4 3.2 2.1 4v5c-2.4 2.3-1.9 6.3-4.9 8.2-2.5-2.5-0.9-6.1-2.3-8.9-0.6-3.1-3.9-5-4-8.3 3-1.5 6.1 0.6 9.1 0z" fill="#0c4ea0"/>
   <path class="st4" d="m438 296c0 0.3 0.1 0.6 0.2 0.9-2.7 1.7-6.4 2-7.3 6.1-0.3 1.1-1.9 0.9-2.9 0.1h-10.9c2.3-4.5 7.2-5 11-7 3.2-0.1 6.6-0.1 9.9-0.1z" fill="#63e4fa"/>
   <path class="st5" d="m421 340c0-0.3 0-0.6-0.1-0.9 3.4-2.4 6.8-2.4 10.2 0 0 0.3-0.1 0.5-0.1 0.8-3.3 0.1-6.7 0.1-10 0.1z" fill="#9dcae9"/>
   <path class="st6" d="m447 310c1.5 2.5 3.8 4.4 4.8 7.2-0.8 6.9-3.7 12.7-9.6 16.7-1.5 1-3 2.3-5 1.4-0.9-3.7 3.1-3.8 4.2-6 2.3-2 4-4.4 4.8-7.3 0.6-2.2 0.4-4.3-0.6-6.2-2.6-5.2-12-8.5-17.6-6.1-1.6 0.7-3.3 0.7-4.9 1.3-1.7 0.3-3.3 1.4-5 0.1 2.9-3 4.8-7.4 10-7.1 2.5-0.9 4.9-1 7.4 0 0.9 0.3 1.8 0.8 2.6 1.2 2.5 1.8 4.8 2.1 7.4-0.1 1.4-1.2 3.1-2.5 5.2-2 1.2 0.5 1.9 1.6 2.3 2.8-0.2 3.9-4.5 2-6 4.1z" fill="#1180cf"/>
   <path class="st7" d="m409.9 326c-0.1-0.3-0.1-0.5 0.1-0.7 1-2.8 2.1-5.5 3.1-8.3 5.1-4 6.7-4.2 12.4-0.8 1.4 0.9 3 1.4 4.5 1.9 0.7 0.4 1.3 0.9 1.2 1.8-1.6 1.7-3.8 1.1-5.6 1.6-0.5 0.1-0.9 0.1-1.4 0.1-3.3-0.7-6.1 0.7-8.9 2.1-1.9 0.7-3 3.1-5.4 2.3z" fill="#5be3f9"/>
   <path class="st8" d="m436 305c-2.6-0.4-5.3-0.7-7.9-1.1-0.1-0.3-0.1-0.6-0.2-0.9 0.8-0.2 2.2-0.4 2.2-0.5 0-5.9 4.1-5.6 8.1-5.6 1 0.1 2.1-0.1 2.9 0.8-0.2 3.5-1.9 5.9-5.1 7.3z" fill="#44d4f7"/>
   <path class="st9" d="m430 319c-1.3-0.2-3.1 0.1-3.8-0.7-4.1-4.4-8.5-3.5-13.1-1.3 0.6-2.6 2.6-4 4.9-5.1 7.5-1 11.5 1.4 12 7.1z" fill="#48d5f7"/>
   <path class="st10" d="m430 319c-1.8-6.1-7.4-5.8-12-7 0-0.3 0.1-0.6 0.1-0.9 1.6-0.4 3.3-0.7 4.9-1.1 7.3-0.6 9.8 2 9.4 9.8-0.4 0.5-0.9 0.5-1.3 0-0.4-0.3-0.8-0.6-1.1-0.8z" fill="#29bff1"/>
   <path class="st11" d="m414.7 322.7c3-1.4 5.7-3.9 9.4-1.9 0 0.7 0.2 1.4 0.2 2 0.1 6.8 0.7 7.8 5.9 9.7 3.9 0.3 6.9-2.7 10.6-3.2 0.5 0.1 0.9 0.3 1.3 0.6-0.9 2.5-3.9 2.7-5.1 4.9 0.6 1.5 3.1-0.5 3.2 1.8-2.9 1.3-6 2-9.1 2.4h-10.2c-2.8-0.7-5.8-0.9-8-3.1 1.7-2.3 2.7-8.8 1.9-11.8-0.2-0.4 0-0.9-0.1-1.4z" fill="#0e5fb2"/>
   <path class="st12" d="m440.2 336.8c-1.2-1.2-2.8-0.7-4.2-0.9-0.4 0-1.7 0.2-0.5-0.8 0.3-0.3 0.9-0.1 1.4-0.2 5.9-1.8 10-5.7 11.9-11.6 0.7-2.2 2.1-4.1 2.9-6.2 1.8 3.2 1 6.7 1.3 10-2.9 5.1-7.7 7.6-12.8 9.7z" fill="#1ca5e5"/>
   <path class="st13" d="m414.7 322.7c1.4 3.4 3.9 5.7 7.7 7.7-3.6 2.1-6.5 3.9-9.5 5.6-4.4-2.3-5.3-5.7-3-10 1.6-1 2.7-2.9 4.8-3.3z" fill="#0a4392"/>
   <path class="st14" d="m450.8 303.1c-2.1 2-4.9 2.9-7.1 4.9-2 1.8-4-0.7-5.7-1.9 2.3-2.6 5.1-4.6 8.1-6.2 1.4 1.3 3.8 1.2 4.7 3.2z" fill="#199ee2"/>
   <path class="st15" d="m446.1 299.8c-1.8 3.2-4.7 5.1-8.1 6.2-0.8-0.1-1.6-0.2-2-1 1.7-2.4 3.4-4.9 5.1-7.3 1.8 0.3 3.6 0.7 5 2.1z" fill="#2bbbef"/>
   <path class="st16" d="m447 310c0.5-3.6 4.8-1.7 6.1-4.1 1.7 0.9 2.4 2.5 2.8 4.2-3 3.3-5.9 0-8.9-0.1z" fill="#0f6bbe"/>
   <path class="st17" d="m442 330h-1c-0.7-2.5 1.5-2.9 2.8-4-5 2-6.9 1.4-9-2.8 0.6-0.7 1.2-1.1 2.1-0.4-0.1-0.5-0.6-0.6-1-0.9-0.8-0.5-1.2-1.1-1.4-1.9 0-0.5 0.1-1 0.4-1.4 3.8-6.6 3.5-7.1-4.2-8.3-1-0.2-1.9-0.4-2.5-1.3 0.3-0.5 0.5-1.4 0.9-1.6 4.4-1.5 15.2 2.8 17.6 7 2.8 5 1 10.9-4.7 15.6z" fill="#0d54a7"/>
   <path class="st18" d="m428.1 308.9c1 0 1.9 0.1 2.9 0.1 5.9 3.7 6.2 5.2 2.3 11-0.5 0.3-1 0.2-1.3-0.3-0.6-5.5-2.6-9.7-9-9.8 1.4-1.5 3.4-0.6 5.1-1z" fill="#19a0e3"/>
   <path class="st19" d="m435 323.1c2.2 3.9 5.7 3 9.7 2-1.5 2-2.6 3.4-3.7 4.9-3.6 1.7-6.9 3.9-11 3.9 1.7-3 1.1-5.1-2.1-6.6-2.3-1.1-3.7-3-4.9-5.3 0.3-0.4 0.7-0.8 1-1.2 0.3 0.1 0.6 0.1 0.8 0 3.6 0.1 7.3-0.6 10.2 2.3z" fill="#0b3b83"/>
   <path class="st20" d="m435 323.1c-3.4-0.8-6.7-1.5-10.1-2.3 1.8-1.9 4.1-0.4 6.1-1.1h1c0.3 0 0.7 0 1 0.1 0.7-0.4 1.4-0.5 1.9 0.4 0.6 0.9 2.4 0.6 2.3 2 0 1.4-1.5 0.5-2.2 0.9z" fill="#e7eff7"/>
   <path class="st21" d="m423 322c2.3 1.8 4.5 3.6 6.9 5.3 4.8 3.3 4.8 3.3 0 6.6-6-1.8-7.1-3.6-6.9-11.9z" fill="#072e68"/>
   <path class="st6" d="m434.9 320.2c-0.6-0.1-1.3-0.2-1.9-0.4 2.6-4.2 1.6-7.8-2-10.8 1.4 0.3 2.9 0.5 4.3 0.9 4 1.1 4.9 3.6 2.4 6.8-0.9 1.2-1.8 2.3-2.8 3.5z" fill="#1180cf"/>
  </g>
 </g>
 <style type="text/css">.st0{fill:#1390DA;}
	.st1{fill:#FDFEFE;}
	.st2{fill:#FCFDFE;}
	.st3{fill:#0C4EA0;}
	.st4{fill:#63E4FA;}
	.st5{fill:#9DCAE9;}
	.st6{fill:#1180CF;}
	.st7{fill:#5BE3F9;}
	.st8{fill:#44D4F7;}
	.st9{fill:#48D5F7;}
	.st10{fill:#29BFF1;}
	.st11{fill:#0E5FB2;}
	.st12{fill:#1CA5E5;}
	.st13{fill:#0A4392;}
	.st14{fill:#199EE2;}
	.st15{fill:#2BBBEF;}
	.st16{fill:#0F6BBE;}
	.st17{fill:#0D54A7;}
	.st18{fill:#19A0E3;}
	.st19{fill:#0B3B83;}
	.st20{fill:#E7EFF7;}
	.st21{fill:#072E68;}</style>
 <style type="text/css">.st0{clip-path:url(#SVGID_2_);fill:url(#SVGID_3_);}
	.st1{clip-path:url(#SVGID_2_);fill:url(#SVGID_4_);}
	.st2{clip-path:url(#SVGID_2_);fill:url(#SVGID_5_);}
	.st3{clip-path:url(#SVGID_2_);fill:#561210;}
	.st4{clip-path:url(#SVGID_2_);fill:#1F0F10;}
	.st5{clip-path:url(#SVGID_2_);fill:url(#SVGID_6_);}
	.st6{clip-path:url(#SVGID_2_);fill:url(#SVGID_7_);}
	.st7{clip-path:url(#SVGID_2_);fill:#381413;}
	.st8{clip-path:url(#SVGID_2_);fill:url(#SVGID_8_);}
	.st9{clip-path:url(#SVGID_2_);fill:url(#SVGID_9_);}</style>
 <style type="text/css">.st0{fill:#1390DA;}
	.st1{fill:#FDFEFE;}
	.st2{fill:#FCFDFE;}
	.st3{fill:#0C4EA0;}
	.st4{fill:#63E4FA;}
	.st5{fill:#9DCAE9;}
	.st6{fill:#1180CF;}
	.st7{fill:#5BE3F9;}
	.st8{fill:#44D4F7;}
	.st9{fill:#48D5F7;}
	.st10{fill:#29BFF1;}
	.st11{fill:#0E5FB2;}
	.st12{fill:#1CA5E5;}
	.st13{fill:#0A4392;}
	.st14{fill:#199EE2;}
	.st15{fill:#2BBBEF;}
	.st16{fill:#0F6BBE;}
	.st17{fill:#0D54A7;}
	.st18{fill:#19A0E3;}
	.st19{fill:#0B3B83;}
	.st20{fill:#E7EFF7;}
	.st21{fill:#072E68;}</style>
</svg>
