<?xml version="1.0" encoding="UTF-8"?>
<svg width="19.173mm" height="18.233mm" version="1.1" viewBox="0 0 19.173 18.233" xmlns="http://www.w3.org/2000/svg">
 <defs>
  <polygon id="SVGID_1_" points="207.2 308.2 223.7 310.8 229.2 288.3 229.2 288.3 276.1 288.3 280.1 310.8 300.5 308.5 318.3 288.2 255.8 170.5 193.7 287.9"/>
 </defs>
 <g transform="translate(-67.39 -94.857)">
  <g transform="matrix(.26458 0 0 .26458 64.152 90.57)">
   <linearGradient id="SVGID_1_-2" x1="28.067" x2="28.067" y1="22.696" y2="66.083" gradientUnits="userSpaceOnUse">
    <stop stop-color="#02602C" offset="0"/>
    <stop stop-color="#136B2F" offset=".072728"/>
    <stop stop-color="#3E8635" offset=".2821"/>
    <stop stop-color="#609B3A" offset=".4849"/>
    <stop stop-color="#78AB3E" offset=".6768"/>
    <stop stop-color="#87B440" offset=".8534"/>
    <stop stop-color="#8CB741" offset="1"/>
   </linearGradient>
   <path class="st0" d="m33.9 16.4c-1.7 0.1-2.5 1.1-2.5 1.2l-18.8 44.5s0 0.1-0.1 0.2c-0.4 1.1-0.3 2.1 0 2.8l0.2 0.4c0.8 1.3 2.4 1.9 3.3 1.9h13.5l14.4-33.4c-3.6-8.5-6.3-14.9-6.7-15.7-0.8-1.6-2.3-2-3.3-1.9z" fill="url(#SVGID_1_-2)"/>
   <linearGradient id="SVGID_2_-2" x1="20.383" x2="42.646" y1="75.208" y2="65.504" gradientUnits="userSpaceOnUse">
    <stop stop-color="#097778" offset="0"/>
    <stop stop-color="#1F9E98" offset=".2771"/>
    <stop stop-color="#31BFB3" offset=".5357"/>
   </linearGradient>
   <path class="st1" d="m16.1 67.4c-0.9 0-2.5-0.7-3.3-1.9l5.3 9.8 4.3 7.9c0.9 1.7 3.3 1.9 3.3 1.9 2.5 0.2 7-2.1 7.9-2.6s21.6-13.3 24.3-15h-28.2c-7.1-0.1-12.8-0.1-13.6-0.1z" fill="url(#SVGID_2_-2)"/>
   <path d="m12.8 65.5-0.2-0.4c0 0.1 0.1 0.2 0.2 0.4z"/>
   <polygon points=""/>
   <polygon points=""/>
   <path d="m31.3 17.6z"/>
   <linearGradient id="SVGID_3_-3" x1="45.091" x2="72.49" y1="20.586" y2="84.517" gradientUnits="userSpaceOnUse">
    <stop stop-color="#02A8E2" offset="0"/>
    <stop stop-color="#1A57A7" offset=".9439"/>
   </linearGradient>
   <path class="st2" d="m56.4 17.9s-0.5-1.7-2.9-1.7h-7.1-12.6c-1.2 0.1-2.1 0.9-2.5 1.4 0.1-0.1 0.8-1.1 2.5-1.2 1-0.1 2.5 0.3 3.3 1.9 0.4 0.8 3.1 7.2 6.7 15.7 7.8 18.6 19.9 47.4 21.5 51.1h19.4z" fill="url(#SVGID_3_-3)"/>
  </g>
 </g>
 <style type="text/css">.st0{fill:#1390DA;}
	.st1{fill:#FDFEFE;}
	.st2{fill:#FCFDFE;}
	.st3{fill:#0C4EA0;}
	.st4{fill:#63E4FA;}
	.st5{fill:#9DCAE9;}
	.st6{fill:#1180CF;}
	.st7{fill:#5BE3F9;}
	.st8{fill:#44D4F7;}
	.st9{fill:#48D5F7;}
	.st10{fill:#29BFF1;}
	.st11{fill:#0E5FB2;}
	.st12{fill:#1CA5E5;}
	.st13{fill:#0A4392;}
	.st14{fill:#199EE2;}
	.st15{fill:#2BBBEF;}
	.st16{fill:#0F6BBE;}
	.st17{fill:#0D54A7;}
	.st18{fill:#19A0E3;}
	.st19{fill:#0B3B83;}
	.st20{fill:#E7EFF7;}
	.st21{fill:#072E68;}</style>
 <style type="text/css">.st0{clip-path:url(#SVGID_2_);fill:url(#SVGID_3_);}
	.st1{clip-path:url(#SVGID_2_);fill:url(#SVGID_4_);}
	.st2{clip-path:url(#SVGID_2_);fill:url(#SVGID_5_);}
	.st3{clip-path:url(#SVGID_2_);fill:#561210;}
	.st4{clip-path:url(#SVGID_2_);fill:#1F0F10;}
	.st5{clip-path:url(#SVGID_2_);fill:url(#SVGID_6_);}
	.st6{clip-path:url(#SVGID_2_);fill:url(#SVGID_7_);}
	.st7{clip-path:url(#SVGID_2_);fill:#381413;}
	.st8{clip-path:url(#SVGID_2_);fill:url(#SVGID_8_);}
	.st9{clip-path:url(#SVGID_2_);fill:url(#SVGID_9_);}</style>
 <style type="text/css">.st0{fill:url(#SVGID_1_);}
	.st1{fill:url(#SVGID_2_);}
	.st2{fill:url(#SVGID_3_);}</style>
</svg>
