<?xml version="1.0" encoding="UTF-8" standalone="no"?>
<!-- Created with Inkscape (http://www.inkscape.org/) -->

<svg
   xmlns:dc="http://purl.org/dc/elements/1.1/"
   xmlns:cc="http://creativecommons.org/ns#"
   xmlns:rdf="http://www.w3.org/1999/02/22-rdf-syntax-ns#"
   xmlns:svg="http://www.w3.org/2000/svg"
   xmlns="http://www.w3.org/2000/svg"
   xmlns:sodipodi="http://sodipodi.sourceforge.net/DTD/sodipodi-0.dtd"
   xmlns:inkscape="http://www.inkscape.org/namespaces/inkscape"
   width="142.68843mm"
   height="45.556831mm"
   viewBox="0 0 142.68843 45.556831"
   version="1.1"
   id="svg8"
   inkscape:version="0.92.3 (2405546, 2018-03-11)"
   sodipodi:docname="drawing.svg">
  <defs
     id="defs2" />
  <sodipodi:namedview
     id="base"
     pagecolor="#ffffff"
     bordercolor="#666666"
     borderopacity="1.0"
     inkscape:pageopacity="0.0"
     inkscape:pageshadow="2"
     inkscape:zoom="0.35"
     inkscape:cx="-223.20972"
     inkscape:cy="128.94877"
     inkscape:document-units="mm"
     inkscape:current-layer="layer1"
     showgrid="false"
     inkscape:window-width="1366"
     inkscape:window-height="705"
     inkscape:window-x="-8"
     inkscape:window-y="-8"
     inkscape:window-maximized="1"
     fit-margin-top="0"
     fit-margin-left="0"
     fit-margin-right="0"
     fit-margin-bottom="0" />
  <metadata
     id="metadata5">
    <rdf:RDF>
      <cc:Work
         rdf:about="">
        <dc:format>image/svg+xml</dc:format>
        <dc:type
           rdf:resource="http://purl.org/dc/dcmitype/StillImage" />
        <dc:title></dc:title>
      </cc:Work>
    </rdf:RDF>
  </metadata>
  <g
     inkscape:label="Layer 1"
     inkscape:groupmode="layer"
     id="layer1"
     transform="translate(-42.048644,-137.3942)">
    <g
       id="g855"
       transform="matrix(0.7288947,0,0,0.7288947,42.048644,137.3942)"
       style="fill:#6884a7;fill-opacity:0.37647059">
      <path
         style="fill:#6884a7;fill-opacity:0.37647059;fill-rule:nonzero;stroke:none"
         id="path2786"
         d="m 73.47125,32.94375 c -4.61125,0 -7.9925,-2.30375 -7.9925,-7.4275 V 8.76375 H 68.9125 V 24.85 c 0,1.79125 0,5.3275 4.55875,5.3275 4.66125,0 4.66125,-3.53625 4.66125,-5.3275 V 8.76375 h 3.43375 v 16.7525 c 0,5.12375 -3.43375,7.4275 -8.095,7.4275"
         inkscape:connector-curvature="0" />
      <path
         style="fill:#6884a7;fill-opacity:0.37647059;fill-rule:nonzero;stroke:none"
         id="path2790"
         d="M 96.93625,32.53375 V 23.62 c 0,-3.07625 0,-4.765 -2.20375,-4.765 -2.5625,0 -4.3575,3.48375 -4.3575,6.71125 v 6.9675 H 87.25125 V 16.14 H 90.375 v 3.53625 h 0.0525 c 0.56375,-1.38375 1.895,-3.895 5.22875,-3.895 3.78875,0 4.405,3.3825 4.405,5.38 v 11.3725 h -3.125"
         inkscape:connector-curvature="0" />
      <path
         style="fill:#6884a7;fill-opacity:0.37647059;fill-rule:nonzero;stroke:none"
         id="path2794"
         d="M 109.2825,32.53375 H 106.208 V 16.14 h 3.0745 z m 0.3075,-19.57 h -3.69075 V 9.4805 H 109.59 Z"
         inkscape:connector-curvature="0" />
      <path
         style="fill:#6884a7;fill-opacity:0.37647059;fill-rule:nonzero;stroke:none"
         id="path2798"
         d="m 121.9875,30.535 c -2.61375,-0.15375 -3.43375,-3.32875 -3.43375,-6.1475 0,-2.66375 0.97125,-6.09625 3.43375,-6.19875 V 15.935 c -1.9475,0.45875 -3.0225,1.8975 -3.33,2.715 h -0.10375 v -2.51125 h -3.0725 v 23.7725 h 3.0725 V 30.33 h 0.10375 c 0.35875,0.76875 1.3325,2.15125 3.33,2.51125 z m 3.38,-6.19875 c 0,3.4325 -0.81875,6.19875 -3.2275,6.19875 h -0.1525 v 2.30625 c 0.30625,0.05125 0.66625,0.1025 1.02375,0.1025 3.74125,0 5.79125,-3.38125 5.79125,-8.8625 0,-4.71375 -1.6425,-8.3 -5.5875,-8.3 -0.45875,0 -0.87,0.05 -1.2275,0.15375 v 2.25375 h 0.1 c 2.9225,0 3.28,3.68875 3.28,6.1475"
         inkscape:connector-curvature="0" />
      <path
         style="fill:#6884a7;fill-opacity:0.37647059;fill-rule:nonzero;stroke:none"
         id="path2802"
         d="M 138.58625,21.05875 H 135.46 c 0,-0.71875 0.71875,-2.8175 3.12625,-2.87 v -2.4075 c -2.205,0.05 -6.35375,1.07625 -6.35375,7.78625 0,5.6375 2.40875,8.60875 6.35375,9.22375 v -2.9725 c -2.3575,-1.33125 -3.27875,-4.35375 -3.27875,-6.66 h 3.27875 z m 0,11.7325 v -2.9725 c 0.76875,0.46 1.69,0.71625 2.76625,0.71625 1.435,0 2.40875,-0.35625 3.125,-0.615 v 2.4625 c -1.38375,0.305 -2.305,0.56125 -4.09875,0.56125 -0.615,0 -1.23,-0.05125 -1.7925,-0.1525 M 141.71,21.05875 h -3.12375 v 2.1 h 6.25 v -0.82 c 0,-3.8425 -1.94875,-6.5575 -5.945,-6.5575 h -0.305 v 2.4075 h 0.15125 c 2.35875,0 2.9725,1.84625 2.9725,2.87"
         inkscape:connector-curvature="0" />
      <path
         style="fill:#6884a7;fill-opacity:0.37647059;fill-rule:nonzero;stroke:none"
         id="path2806"
         d="m 153.85375,18.5475 v 8.76125 c 0,1.485 0.205,3.22625 2.61125,3.22625 0.5625,0 1.18,-0.1025 1.63875,-0.25625 v 2.4075 c -0.76625,0.15375 -1.63875,0.25625 -2.4575,0.25625 -3.94625,0 -4.9175,-1.74125 -4.9175,-3.99375 V 18.5475 h -2.9225 v -2.40875 h 2.9225 v -3.8425 l 3.125,-1.9475 v 5.79 h 4.5075 v 2.40875 h -4.5075"
         inkscape:connector-curvature="0" />
      <path
         style="fill:#6884a7;fill-opacity:0.37647059;fill-rule:nonzero;stroke:none"
         id="path2810"
         d="m 165.3275,25.56625 v 6.9675 H 162.2 v -16.395 h 3.1275 v 3.33 h 0.0525 c 0.46,-1.33 1.84375,-3.6875 5.06875,-3.6875 v 3.3825 c -2.81375,0 -5.12125,1.38 -5.12125,6.4025"
         inkscape:connector-curvature="0" />
      <path
         style="fill:#6884a7;fill-opacity:0.37647059;fill-rule:nonzero;stroke:none"
         id="path2814"
         d="m 180.44,30.535 c -3.38,-0.05125 -3.7875,-3.58625 -3.7875,-6.19875 0,-2.6125 0.4075,-6.1475 3.7875,-6.1475 v -2.4075 c -4.9175,0 -7.22125,3.33 -7.22125,8.555 0,5.175 2.30375,8.6075 7.22125,8.6075 z m 3.84375,-6.19875 c 0,2.6125 -0.46,6.19875 -3.7925,6.19875 H 180.44 v 2.40875 h 0.0513 c 4.92125,0 7.225,-3.4325 7.225,-8.6075 0,-5.225 -2.30375,-8.555 -7.225,-8.555 H 180.44 v 2.4075 h 0.0513 c 3.3325,0 3.7925,3.48375 3.7925,6.1475"
         inkscape:connector-curvature="0" />
      <path
         style="fill:#6884a7;fill-opacity:0.37647059;fill-rule:nonzero;stroke:none"
         id="path2816"
         d="m 192.63375,32.53375 h 3.12612 v -23.77 h -3.12612 z"
         inkscape:connector-curvature="0" />
      <path
         style="fill:#6884a7;fill-opacity:0.37647059;fill-rule:nonzero;stroke:none"
         id="path2820"
         d="M 120.19125,48.77375 H 113.8925 V 60.25 h 6.29875 v -1.69125 c -2.305,-0.05125 -4.045,-1.79375 -4.045,-3.9975 0,-2.2 1.74,-4.095 4.045,-4.095 z m 0,7.3775 c -0.92125,-0.05 -1.63875,-0.76875 -1.63875,-1.59 0,-0.92 0.7175,-1.585 1.63875,-1.585 z M 128.185,52.565 v 1.63875 c -0.1025,0 -0.15375,0.05125 -0.25625,0.05125 h -0.40625 v -1.69 z m 0,-3.79125 h -7.99375 v 1.6925 h 0.0538 c 2.2025,0 3.99375,1.895 3.99375,4.095 0,2.20375 -1.79125,3.9975 -3.99375,3.9975 h -0.0538 V 60.25 h 7.99375 v -3.07375 l -0.6625,-1.385 v 2.5625 H 125.06 v -7.685 h 3.125 z m -7.94,4.2025 c 0.82,0 1.5875,0.615 1.5875,1.585 0,0.82125 -0.7675,1.59 -1.5875,1.59 h -0.0538 v -3.175 z m 7.94,1.2275 c 0.46125,-0.05125 0.66625,-0.35875 0.66625,-0.8175 0,-0.46375 -0.205,-0.71875 -0.66625,-0.82125 z m 6.9675,-5.43 v 1.895 H 132.54 v 7.685 h 2.6125 V 60.25 h -6.9675 v -3.07375 l 0.5625,1.1775 h 3.07625 l -2,-3.17625 c 0.81875,-0.10125 1.48625,-0.82 1.48625,-1.895 0,-1.69125 -1.075,-2.61375 -3.07375,-2.61375 h -0.0513 v -1.895 z m 5.84125,7.48 h 0.40955 v -0.97387 h -0.40955 z m 0,-2.76625 h 0.40955 v -0.92162 h -0.40955 z m 0.41,-4.71375 v 1.895 h -2.87 v 7.685 h 2.87 V 60.25 h -6.25125 v -1.89625 h 2.56125 v -2.1 h -2.40625 v -5.585 h -0.155 v -1.895 z m 7.32625,0 v 3.89375 l -1.3325,-1.99875 H 145.09 v 7.685 h 2.41 V 55.485 c 0,-0.3075 0,-0.7175 -0.1025,-1.1275 l 1.3325,1.99875 V 60.25 h -7.32625 v -1.89625 h 2.81375 v -2.1 h -2.81375 V 55.28 h 1.17875 v -1.7925 h -1.17875 V 52.565 h 2.51 v -1.89625 h -2.51 v -1.895 z m 0,11.47625 v -3.89375 l 1.33,1.9975 h 2.30625 v -7.685 h -2.45875 v 2.7175 c 0,0.305 0.1525,0.71625 0.1525,1.27875 l -1.33,-1.9975 v -3.89375 h 6.45375 V 60.25 H 148.73"
         inkscape:connector-curvature="0" />
      <path
         style="fill:#6884a7;fill-opacity:0.37647059;fill-rule:nonzero;stroke:none"
         id="path2824"
         d="m 168.86375,50.72125 v 1.5875 h -0.82 V 54.255 h 0.82 v 2.46 l -0.82,-1.435 v 2.97125 h -1.94625 v -7.53 z m -3.99625,3.63625 c 0,-0.15375 0,-0.30625 -0.05,-0.46 h -3.99625 v 1.5875 h 2.045 c -0.15,0.81875 -0.86875,1.385 -1.94625,1.385 -1.225,0 -1.99375,-0.87125 -1.99375,-2.3075 0,-1.435 0.81875,-2.305 1.99375,-2.305 0.67,0 1.18125,0.3075 1.64125,0.87 l 1.74375,-0.87 c -0.77,-1.12625 -1.89625,-1.74125 -3.385,-1.74125 -2.3025,0 -4.045,1.69125 -4.045,3.945 0,1.075 0.41,2.1 1.12875,2.86875 0.76875,0.76875 1.74125,1.075 2.91625,1.075 2.4625,0 3.9475,-1.435 3.9475,-4.0475 m 3.99625,2.3575 v -2.46 c 0.5625,-0.1025 0.8175,-0.3575 0.8175,-0.92125 0,-0.66625 -0.255,-0.92125 -0.8175,-1.025 v -1.5875 c 0.8175,0 1.485,0.10125 1.9975,0.5125 0.56375,0.41 0.87125,1.02375 0.87125,1.845 0,1.125 -0.615,1.89375 -1.69,2.14875 l 2.0475,3.02375 h -2.305 z m 7.68375,-6.19875 v 1.74125 c -1.12625,0 -1.945,1.025 -1.945,2.2525 0,1.23125 0.765,2.205 1.945,2.205 v 1.7425 c -0.87125,0 -1.845,-0.3075 -2.56,-0.9225 -0.92375,-0.77 -1.435,-1.845 -1.435,-3.025 0,-1.07375 0.40875,-2.04875 1.17875,-2.81625 0.76625,-0.715 1.7925,-1.1775 2.81625,-1.1775 m 11.98875,4.66125 V 50.72125 H 186.485 v 3.585 c 0,1.64 -0.05,2.40875 -1.2775,2.40875 -1.07875,0 -1.33375,-0.56375 -1.33375,-1.89625 v -4.0975 H 181.825 v 4.04625 c 0,1.17875 0.05,2.05125 0.665,2.7675 0.51375,0.615 1.43375,0.9225 2.7175,0.9225 2.35375,0 3.32875,-0.9725 3.32875,-3.28 m -11.98875,3.28 V 56.715 c 1.17875,0 1.9975,-0.97375 1.9975,-2.205 0,-1.2275 -0.81875,-2.2525 -1.9975,-2.2525 v -1.74125 c 1.0775,0 2.1,0.4625 2.86875,1.1775 0.77,0.7675 1.1775,1.7425 1.1775,2.81625 0,1.0775 -0.4075,2.05125 -1.1775,2.77 -0.76875,0.7675 -1.79125,1.1775 -2.86875,1.1775 M 192.89,50.72125 v 1.64 c -0.15375,0 -0.25625,-0.0525 -0.46125,-0.0525 h -0.41125 v 1.79375 h 0.8725 v 1.63875 h -0.8725 v 2.51 h -1.89375 v -7.53 z m 0,5.02 V 54.1025 c 0.56375,-0.1025 0.8725,-0.30625 0.8725,-0.87125 0,-0.615 -0.30875,-0.81875 -0.8725,-0.87 v -1.64 c 0.71875,0 1.3325,0.05 1.7925,0.3575 0.67,0.4625 1.0775,1.23 1.0775,2.20375 0,0.9725 -0.3575,1.7425 -1.0775,2.15125 -0.51125,0.3075 -1.07375,0.3075 -1.7925,0.3075"
         inkscape:connector-curvature="0" />
      <path
         style="fill:#6884a7;fill-opacity:0.37647059;fill-rule:nonzero;stroke:none"
         id="path2828"
         d="m 50.3625,56.19875 c 0,-2.25375 -4.355,-4.19875 -10.96625,-5.3275 0.10125,0.2575 0.205,0.61375 0.25625,0.87375 1.07625,3.225 3.33,6.1475 6.15,8.145 2.8675,-1.025 4.56,-2.30875 4.56,-3.69125"
         inkscape:connector-curvature="0" />
      <path
         style="fill:#6884a7;fill-opacity:0.37647059;fill-rule:nonzero;stroke:none"
         id="path2832"
         d="m 48.77375,34.12 c 1.025,-0.2575 1.9975,-0.3075 3.02375,-0.36 -0.565,1.99875 -1.33625,3.94625 -2.25625,5.7375 -0.46125,0.105 -7.2225,1.53875 -10.7575,9.01875 -0.87375,-7.58375 5.12,-12.96375 9.99,-14.39625"
         inkscape:connector-curvature="0" />
      <path
         style="fill:#6884a7;fill-opacity:0.37647059;fill-rule:nonzero;stroke:none"
         id="path2836"
         d="M 13.8325,44.4175 C 9.2225,30.37875 17.37,16.24 32.0725,12.90875 38.065,11.525 44.265,12.1925 49.79875,14.44625 c 0.9225,1.8975 1.68875,3.89375 2.14875,6.045 -4.71375,-1.895 -10.04,-2.41 -15.215,-1.22875 -12.705,2.87 -19.77375,15.0625 -15.7775,27.255 2.35625,7.12125 7.9375,12.705 14.8575,15.47125 -1.4875,0.155 -3.075,0.30625 -4.6625,0.40875 -7.9925,-3.225 -14.6025,-9.68125 -17.3175,-17.98"
         inkscape:connector-curvature="0" />
      <path
         style="fill:#6884a7;fill-opacity:0.37647059;fill-rule:nonzero;stroke:none"
         id="path2840"
         d="M 25.87,6.7625 C 9.42625,10.50125 1.64125,27.51 7.0175,44.26375 7.07,44.4175 7.12125,44.52 7.17125,44.6725 3.63625,40.21375 0,34.785 0,26.28125 0,11.78125 11.7825,0 26.33375,0 c 7.58,0 14.4475,3.225 19.21,8.40125 C 39.39625,5.94125 32.53,5.225 25.87,6.7625"
         inkscape:connector-curvature="0" />
      <path
         style="fill:#6884a7;fill-opacity:0.37647059;fill-rule:nonzero;stroke:none"
         id="path2844"
         d="m 10.4525,51.385 c 3.8925,5.02125 9.27,8.91375 15.265,11.11625 C 12.705,62.45 2.20375,59.63125 2.20375,56.14875 2.20375,54.2525 5.43,52.5625 10.4525,51.385"
         inkscape:connector-curvature="0" />
      <path
         style="fill:#6884a7;fill-opacity:0.37647059;fill-rule:nonzero;stroke:none"
         id="path2848"
         d="m 27.87125,48.5675 c -3.535,-10.86125 2.765,-21.72125 14.08875,-24.335 3.535,-0.76875 7.17125,-0.6675 10.5525,0.1525 0.05375,0.6675 0.10375,1.28125 0.10375,1.8975 0,1.28125 -0.10375,2.50875 -0.26,3.74 -2.0975,-0.30875 -4.24875,-0.20625 -6.34875,0.25375 -9.2225,2.1525 -14.3975,11.01625 -11.4775,19.88 1.48625,4.5075 4.76375,8.19625 9.01625,10.45 -1.2275,0.3575 -3.2275,0.76875 -4.355,0.92375 -5.27625,-2.665 -9.425,-7.27625 -11.32,-12.9625"
         inkscape:connector-curvature="0" />
    </g>
  </g>
</svg>
