<?xml version="1.0" encoding="UTF-8"?>
<svg width="124.15mm" height="72.636mm" version="1.1" viewBox="0 0 124.15 72.636" xmlns="http://www.w3.org/2000/svg">
 <g transform="translate(-42.246 -39.944)">
  <g transform="matrix(.219 0 0 .219 23.741 23.141)">
   <g clip-rule="evenodd" fill-rule="evenodd">
    <path class="st3" d="m365.5 76.8c0.8-0.1 2.3 0.1 3.6 0.2 1.2 0.1 2.4-0.2 3.6-0.2 5.3-0.3 9.7 0.4 14.1 0.8 2.3 0.2 4.4 0.8 6.3 1.2 4.1 1 8.1 1.9 11.7 3.2 7.4 2.5 14.1 5.9 20.4 9.6 3.2 1.9 6.3 3.8 9 5.9 1.4 1 2.6 2.3 4 3.4 4.1 3.3 7.8 7 11.3 11.2 3.4 4.1 6.3 8.6 9.6 12.9 1.1 1.5 1.8 3 2.7 4.7 0.9 1.6 2.1 3 2.9 4.6 0.8 1.7 1.5 3.5 2.2 5.2 1.6 3.5 2.9 7.2 3.8 11.2 0.5 2 0.9 4 1.4 6.1 0.8 3 1 6.5 1.8 9.5 0.3 1.1 0.3 2 0.4 3.3 0.1 2.3 0.7 4.4 0.7 6.8s0.2 4.7 0.1 7.1c-0.1 2.2-0.4 4.5-0.7 6.8-0.3 2.4-0.2 4.8-0.4 7.1s-0.3 5.1-0.8 7.1c-0.5 2.1-1.6 4.2-2.1 6.4-1.7 6.7-4.7 12.1-7.4 17.9-1.7 3.6-3.7 7.5-6 10.9-2.4 3.4-4.6 6.9-7.2 9.6-2.8 2.9-5.3 6.1-8.2 8.8-1.5 1.3-3.1 2.4-4.6 3.8s-3.1 2.6-4.7 3.7c-1.7 1.1-3.5 2.2-5.1 3.4-4.8 3.7-10.5 6.1-16.5 8.8-5.9 2.7-12.6 4.2-19.5 5.9-4.6 1.2-9.8 1.5-14.7 2.3-2.5 0.4-4.9-0.2-7.7 0-2.5 0.2-5.1-0.2-7.7-0.5-5.3-0.5-10.2-0.8-14.7-2.3-2.2-0.7-4.2-1.6-6.3-2.1-8.9-2.3-16.4-5.8-23.3-10.4-1.7-1.1-3.4-2.1-5-3.4-0.8-0.7-1.6-1.3-2.5-1.8-1.1-0.6-2.4-0.9-3.4-1.7-1.7-1.3-3.1-3.4-5-5.1-1.8-1.6-3.5-3.4-5-5.1-1.6-1.8-3.4-3.3-5-5.1-1.5-1.8-3-3.7-4.4-5.7-1.4-1.9-2.8-4-4-6-1.2-2.1-2.7-4.2-3.8-6.3-1.1-2.2-2.2-4.6-3.1-7-0.5-1.3-0.6-2.6-1.2-3.9-0.5-1.1-1.2-2.2-1.7-3.3-1.9-4.8-2.9-10.5-3.8-16.4-0.4-2.9-1.2-5.8-1.4-8.7-0.7-9.8 0-19.7 1.7-28.4 0.3-1.5 0.6-2.9 0.8-4.3 0.2-1.5 0.3-3 0.6-4.4 0.5-2.7 2-4.7 2.8-7.2 0.5-1.4 0.6-2.7 1.2-3.9 1-2.2 2-4.6 3.3-6.8 0.6-1 1.4-2 1.9-3.1 2.1-4.7 4.8-8.6 7.8-12.3 1.6-2 2.6-4.2 3.9-6.2s3.3-3.4 4.9-5.2c3.1-3.4 6.4-6.9 10.1-10.1 1.8-1.5 3.8-2.9 5.8-4.3s4.1-2.5 6.3-3.8c2.1-1.2 4.4-2.3 6.5-3.6 2.2-1.3 4.4-2.5 6.8-3.3 3.8-1.4 6.8-3.5 10.7-4.5 1.3-0.3 2.7-0.4 4.3-0.7 2.7-0.5 5.4-1.5 8.3-1.8 2.9-0.1 6.1-0.3 9.6-0.5zm14.5 13.4c1.8 0.6 5-0.3 7-0.7 1.6-0.4 5.2-0.7 5.3-2 0.1-1.6-3.3-2.5-5.3-2.8-3.5-0.7-8-1-9.5 0.6 0 2.3 0.7 4.3 2.5 4.9zm26.1 3.1c2.2 5.4 4.4 9.6 6.2 15.1 0.7 2 0.6 5.4 1.5 7 1 1.7 3 2 5.5 2.6 1.7 0.4 3.3 1 5 0.9 1.9-0.1 3.5-1.4 5-2.4 1.2-0.8 2.8-1.6 3.9-2.5 0.8-0.6 1.4-1.5 2.1-2 1.1-0.8 3.3-1.7 3.2-3.2-0.1-1.3-3.1-3.7-4.7-3-0.9 0.4-0.4 2.4-1.5 2.6-1.4 0.3-2.4-2.9-3.2-4.3-0.6-1-1.9-2-2.7-3.1-1-1.3-1.7-2.6-2.5-3.4-1.8-1.8-4.7-3.3-7.6-5.2-2.8-1.9-6.3-3.3-9.4-3.6-0.1 0-0.2 0.1-0.2 0.1-2.3 0.6-1.4 2.5-0.6 4.4zm-16.8 1.5c-2.2 0.5-6.5 0.9-6.9 2.7-0.3 1.4 0.7 3.1 1.1 4 1 2.8 1.8 5 2.6 7.8 0.4 1.4 1.1 2.9 0.9 4.3-0.1 1.1-0.9 1.7-1.1 2.5-0.8 3.2 0.9 5.7 1.4 9 0.4 2.4 0.2 6.4 2.1 6.4 1.2 0 2.7-2.7 3.3-3.6 1.1-1.5 2.2-2.8 3.1-3.9 2.1-2.5 4.4-5.6 6.5-7.5 0.9-0.8 1.5-1.3 2.7-1.8 1.3-0.5 4.9-0.3 5.5-1.4 0.7-1.4-1.3-4.3-1.9-5.9-0.8-2-1.9-4-2.7-5.5-1-1.8-1.9-3.4-3-5.1-1.3-2.1-2.9-4.7-6-4.3-2.4 0.6-4.3 1.5-7.6 2.3zm2.8 50.9c0.4-0.3 1.3-0.8 2.1-1.1 1.5-0.5 3.8-0.5 4-1.9 0.5-2.8-2.7-2.5-4.6-3.2-1.6-0.6-2.2-1.7-3.4-2.3-0.8-0.1-1.4 0.3-2 0-1.8-1.6-1.3-4.5-1.9-6.9-0.2-0.9-0.7-1.7-0.9-2.6-0.3-1-0.4-2.1-0.7-3.2-0.3-1-0.8-1.9-1.1-3-0.3-1-0.2-2-0.5-3-0.5-1.8-1.2-3.6-1.8-5.3-0.6-1.8-0.7-3.7-1.4-5.8-0.5-1.5-1.4-3.2-2.1-5-1.2-2.8-2.7-5.5-6.6-4.7-2.5 0.5-1.5 2.6-2 5-0.8 4.2-4.9 7-7.8 9.1-2.4 1.7-5.9 2.7-7.5 5-0.8 1.2-3.2 6.6-2.5 8.4 0.6 1.5 5.6 2 7.2 2.1 3.3 0.3 5.9 0.3 7.6 1.9-3.5 1.8-7.5-0.1-11.9 0-1.8 0-5.6 0.3-6.4 1.4-0.6 0.8-0.4 2.5-0.7 3.7-0.2 1-0.8 2-1.2 3.1-0.3 1.1-0.5 2.3-0.7 3.6-0.5 2.3-1 4.7-1.4 7.1-0.4 2.5-0.6 5.1-1 7.6s-1 5-1.2 7.3c-0.1 1.7 0.2 6.4 0.9 7.4 0.7 0.8 4.1 1.5 5.8 1.5 1.5 0 2.8-0.1 4.3 0.1 2.7 0.4 5.5 0.9 8.7 0.8 1.5 0 3 0.2 4.4 0.1 0.9 0 2.1-0.5 2.8-0.5 1.5 0 2.9 0.5 4.4 0.7-1.8 1.7-4 1.6-6.9 1.7-1.1 0-2.2 0.5-3.7 0.6-2.3 0.2-5.1 0-7.9 0.2s-5.8 0.1-7.9 0c-1.6-0.1-2.9-0.4-3.9 0-1.4 0.5-1.7 2.2-2.6 3.2-0.9-2.1-1.8-3.7-4.4-4-3.2-0.3-7.8 0-11-0.7-2.2-0.5-4.7-2-6.3-1.3-1.9 0.9 0.2 5.9-1.7 6.3-1.1 0.2-3.1-2.2-4.2-2.7-1-0.5-2.3-0.9-3.4-0.8-2.2 0.2-3.1 2.1-4.6 3.4-1.3 1.1-2.7 1.9-3.3 3.6-0.3 0.9-0.2 2.4 0 4.2s0.2 3.3 0.4 4c0.3 1.2 1.4 2.5 2.3 3.9 0.7 1.3 1.5 2.8 2.3 3.7 1.2 1.4 2.7 1.8 4.2 2.7 1 0.6 1.8 1.9 3 2.1 0.9 0.1 1.9-0.2 2.8-0.1 1 0.1 2.1 0.7 3 0.8 1.5 0.1 2.7-0.5 4-0.5s2.9 0.3 4.2 0.8c1.6 0.6 2.7 2 4.5 2.5 2.2 0.7 4.6 0.2 6.8-0.4 1.6-0.4 3-1.2 4.4-0.9 2.4 0.4 4.1 3.2 4.7 5.2 0.4 1.1 0.2 2.1 0.9 2.9 1.7 1.9 5.2 0.2 7.4 1.3-1.1 1.8-5.7 1.2-6.7 3.7s1.1 5.9 0.7 9.4c-0.4 3.8-3.6 5.3-3.6 8.9 0 1.9 0.8 4 0.8 6.5 0 1.3-0.3 2.7 0 3.3 0.6 1.4 2.7 1.7 4.9 1.9 2 0.2 4.3 0.6 6.3 0.4 1.9-0.2 4.1-0.5 6.2-0.6 2.2-0.1 4.6-0.5 6.1 0.6-2.2 3.1-8 2.4-13.2 2.6-2.4 0.1-4.9 0.3-7 1-1.8 0.6-4.6 1.2-5.5 2.5-0.6 1-1 3.3-0.7 5 0.2 0.8 1 1.8 1.4 2.7 1.2 2.6 2 5.2 3.3 7.7 1.2 2.3 2.6 4.8 4.3 6.8 0.9 1.1 2.5 2.8 3.9 3.4 2.1 1 7 1.1 10.3 1.2 1.7 0.1 3.5-0.2 5.4-0.2 1.9-0.1 4.1 0.2 5.6-0.2 2.2-0.6 3.5-3.4 4.5-5.8 2.1-5.1 3.1-9.6 4.9-15 0.8-2.6 1.8-5.4 1.8-8.2 0-2.3-1.3-5.8 0.9-6.9 1.4 2.3 0.1 5.2-0.4 7.5-0.8 3.6-0.4 7.5-0.7 11.9-0.1 2-0.5 4.6-0.8 7.5-0.2 2.2-1.7 5.6-0.9 7 1.1 1.9 6.4 0.4 8.3-0.1 5.7-1.5 9.8-3 13.1-6.4 1.6-1.7 2.4-3.9 3.7-6.2 0.7-1.2 2.1-2.4 2.1-4 0-2.2-2.7-4-3.8-5.9-1.4-2.4-1.6-6.4-2.7-9.7-1.2-3.6-3.3-5.5-3.9-8.7-0.8-3.6 2.2-6 1.3-9.6-0.3-1.4-1.8-3.1-2.6-4.5-0.8-1.5-1.4-3.1-1.7-5-0.2-1.8 0-4.5-0.7-5.9-0.6-1.1-2.1-1.5-3.3-2.3-1.6-1-2.6-2.4-4.3-2.5-2.9-0.2-5.3 2.1-7.8 2.5-3.6 0.6-5.4-2.2-7.6-3.8-1.9-1.4-3.5-2.1-4.6-3.8-1-1.5-1.9-4.6-1.9-7.5 0-1.6-0.1-4.9 0.5-6.6 0.4-1.4 1.8-2.7 2.9-3.9 2.1-2.7 4.3-4.8 5.6-8 0.6-1.6 1.5-3 2.1-4.7-1.1-1.3-3.1-1.1-3.8-2.5-0.7-1.3-0.9-3.7-0.5-5.1 0.3-1 1.3-1.8 2.1-2.3 1.7-0.9 5-0.7 5.8-2.3 1-2-1.1-4.6-1.2-6.7-0.1-1.1 0.4-1.7 0.2-3.2-1.6-0.7-2.8-0.1-3.9-0.8-1.5-1-0.6-3.1-0.4-4.7 0.5-2.8 0-6.4 2.1-6.5 1.4-0.1 2.2 1.5 2.6 2.8 0.8 2.8 1.1 5.6 0.7 8.4 3 1 3.8-2.8 5.8-4.2zm-51.5-31.2c-0.1-3.1 0.4-5.4-0.6-7.8-0.9-2.1-2.4-4.6-4-5.3-0.7-0.4-1.8-0.6-2.7-0.5-2.1 0.2-4.8 3.8-4.4 5.3 0.5 1.9 5.1 1.4 6.2 3 0.8 1.2 0.6 3.6-0.1 5-0.7 1.3-2.9 1.9-2.8 3.7 0.1 1.9 3 2.4 4.6 3 1.9 0.7 3.8 2 5.9 1.3 0.3-3.2-2-4.7-2.1-7.7zm-23.2 9.2c-2.9 0.7-5.8 1.3-7.2 2.9-0.9 1-1.4 2.7-2.3 4.3-0.7 1.2-2 3.3-1.2 4.9 0.6 1.2 2.4 0.9 4.6 0.8 1.5-0.1 3.3 0.2 3.9-0.5 0.9-0.9 0.4-2.4 0.5-3.9 0.1-2.3 1.3-4.6 3.1-5.1 0.7-0.2 1.8 0.1 2.8 0 1.7-0.1 2.7-1.1 4.3-0.8 1.2 0.2 2.3 1.3 3 2.5s0.7 2.5 1.5 3.2c1 0.9 2.9 0.8 4.4 1.4 2.1 0.8 5.6 3.7 4.9 7.1-0.4 1.8-2.9 2.7-4.3 3.6-1.6 0.9-3.5 2.3-4.4 3.6-1.3 1.8-1.5 4.6-2.3 7.2-1 3.4-2.7 6-4.6 8.1-0.4 0.4-1.6 1.1-1.4 2.5 0.2 1.6 5.7 2.5 7.1 2.7 2 0.4 6.2 2.1 8.2 1.2s2.2-6.1 2.4-8.8c0.5-7.7 1.7-12.9 2.3-20.1 0.2-2.7 1.3-8.3 0.1-10.4-0.7-1.2-4.6-2-6.8-2.5-1.2-0.3-2.5-0.6-3.7-0.9-1.3-0.4-2.3-1.1-3.2-1.4s-1.9-0.5-2.6-0.7c-1.9-0.7-3.5-2-5.8-1.7-1 0-2 0.5-3.3 0.8zm88.9 4.7c-1.6 0.7-1.1 2.2-1.1 4 0.1 2.9-1.5 5.4-1.2 7.1 0.6 2.9 3.4-0.2 3.8-1.2 1.1-3.1-1.7-4.4-1.9-6.2-0.2-1.4 1.2-2.6 0.5-3.8 0 0.1-0.1 0.1-0.1 0.1zm0.6 37.4c0 1.1-1 2.3-2.1 2.3-1.2-0.1-1.7-2-2.4-3-0.9-1.2-3.3-3.3-4.9-3.7-4.8-1.2-6.5 2.5-8.1 5.1-0.8 1.4-2.1 2.6-2.1 4.2 4.1 0.5 8.9-3 13.3-0.7 1.3 0.7 1.9 2.2 2.7 3.2 1.2 1.4 2.6 2.5 5.3 2.3 2.1-0.2 4.2-0.8 7.4-1.1 2.4-0.2 6.4-0.3 6.5-2 0.1-1.6-2.2-2.2-3.7-2.8-1.5-0.7-3.3-1.9-4.7-1.9-1 0-1.9 0.8-2.7 0.7-1.1-0.1-2.3-1.5-2.9-2.7-0.3-0.7-0.4-1.5-0.7-2.1-0.7-1.2-2.5-2.3-3.9-2.5 0.3 1.7 3 2.8 3 4.7zm-107.2 34.8c-0.4-0.6-0.8-1.4-1.5-2-1.9-1.4-4.7-1.7-6-3.9-0.7-1.2-1.1-3-1.9-4.4s-1.8-2.6-2.5-3.8c-0.5-0.9-0.8-1.9-1.3-2.8-1.7-2.9-4.8-4.3-6.9-6.4-1.7-1.7-2.9-3.8-4.9-4.3-2.1-0.5-1.6 6.4-1.2 7.9 1 4.1 2.3 5.2 4.6 7.7 1 1.1 1.9 2.4 2.9 3.2 0.5 0.5 1.2 0.8 1.8 1.3 0.8 0.7 1.4 1.7 2.1 2.4 1 0.9 2.1 1.7 3.2 2.5 1.2 0.9 2.2 1.9 3.2 2.5 1.3 0.7 3.1 1.1 4.7 1.5s3.2 1.5 4.5 1c0.2-1.4-0.3-1.8-0.8-2.4zm151.2-18.3c1.7 0.2 3.5 2.1 6.3 2 1.5 0 4.2-1.2 3.9-3.1-0.2-1.2-1.6-1.4-2.9-1.3-1.2 0.1-2.6 0.5-4 0.9-1.5 0.5-2.6 1-3.6 1-1-0.1-1.8-1.1-3.1-0.6 0.2 1.6 2.2 0.9 3.4 1.1zm-20.8 8.5c0.7 1.4 1.7 3 3.2 2.8 0.1-1.7-1.2-3-2.1-4-1-1.2-1.7-2.6-3-3.4h-0.2c0.3 1.6 1.4 3.2 2.1 4.6zm24.5 36.2c1.5 0.2 3.3-1.6 4.6-2.5 3.5-2.5 4.2-5.3 5.8-9.6 0.7-2 1.5-4.1 2-6.2 1.2-4.4 2.7-8.7 2.5-14-0.1-2.9-1.3-8-4.5-6.9-3.1 1.1-5.6 3.2-8.7 4.4-2.4 0.9-4.9 1.7-7.2 2.6s-4.8 1.8-6.3 3.6c1.4 0.7 3.3 1.2 3.6 3.1 0.1 1.2-0.8 2.8-1.5 4-0.8 1.2-1.5 2.6-2 3.7-2.3 5.2-5.7 9.8-5.3 17.2 0.1 1.7 0.4 3.5 0.4 5.3-0.1 1.6-0.5 3.5 0.8 4.6 1.1-0.4 2-1.3 3.1-1.8 2.3-1.2 4.8-1.5 6.7-3 2.1-1.7 2.4-4.1 4.4-6.2 0.6 0.7 0.5 1.6 1.6 1.7zm-177.9-18.7c1.7 5.1 2.8 9 4.6 13.4 0.9 2.2 1.5 4.5 2.5 6.5 1 1.9 3.7 4.8 5.1 6 0.8 0.7 1.9 1.3 2.8 2 1 0.8 1.7 1.6 2.7 2.3 0.8 0.6 1.9 1.1 3.1 1.9 1.1 0.7 2.7 1.7 3.6 1.2 1.3-0.7 0.2-3.4-0.1-4.4-0.5-1.5-1.2-3.1-1.2-4.5 0-0.7 0.4-1.2 0.4-2 0-0.7-0.7-1.9-0.8-3.1-0.1-0.9-0.1-1.9-0.2-2.6-0.2-0.9-1.3-2.4-1.5-3.6-0.7-3.7 1.4-7.6 0.4-10.3-0.7-1.7-3.4-3.1-5.7-3.7-1.1-0.3-2.1-0.2-3.1-0.6-2-0.7-3.9-2-5.7-2.8-1.7-0.9-4.5-2.7-6.3-2.4-2.7 0.5-1.1 5-0.6 6.7zm27.4 29.9c1 1.8 2.5 5.5 4.3 6.4 0.9 0.4 2.2 0.5 3.4 0.8 1.3 0.3 2.4 0.6 3.6 0.8 1.6 0.3 5.9 2.2 6.9 0.8 0.9-1.3-0.6-3.4-1.4-4.4-1.1-1.3-2.1-2.4-3.3-3-2.9-1.4-7.4-1.4-9.8-3-2.5-1.6-3.5-6.3-6.9-5.7 0.1 2.7 1.9 4.9 3.2 7.3zm147.8-3.9c-1.1 1-1.9 2.9-2.7 4.6-0.8 1.8-1.9 4.1-1.1 5.7 3.2-1.6 4.9-5.4 6.9-8.2 0.7-1 1.7-2.2 1.1-3.6-1.4-0.5-3.3 0.6-4.2 1.5zm-19 7.6c-0.4 1.2-0.1 2.7-0.6 4.3-0.7 2.1-3.6 2.7-5.2 4.7-1.8 2.2-2.1 5.9-4 7.5-0.9 0.7-2.1 0.9-3 1.4-1.2 0.7-2.6 2.1-3.4 3.6-0.5 0.9-2.5 6.3-1.4 7.4 1.5 1.5 5-1.4 6.3-2.3 2.2-1.3 4.1-2 6.1-3.2 1.5-0.9 2.6-2 4-3.1 1.5-1.1 3.1-2 4-3.2 1.1-1.5 1.9-3.3 2.9-4.8 2.1-3.1 4.2-5.7 5.8-9.4 0.8-1.8 2.1-3.5 2.6-5 0.3-1 0.4-2.7 0-3.3-1.8-2.4-5.5 1.9-8.1 0-2.4 1.7-4.9 2.5-6 5.4zm-122.6 14.8c-0.6-1.5-1.2-3.2-2.1-4.3-1.7-1.9-6.5-4.2-9.4-3.8-0.4 1.3 0.7 2.5 1.4 3.4 1.5 1.9 2.5 3.5 4.3 5 1.9 1.7 3.9 4.5 7 4.3 0.5-1.4-0.6-3.1-1.2-4.6zm6.5 1.6c1.2 1.6 2.2 2.9 3.2 4.2 1.1 1.4 2.4 2.6 3.3 4 1 1.7 2.2 4 4 5.2 2.5 1.7 5.7 2.8 9 4.2 1.3 0.5 3.1 0.9 5 1.5 1.6 0.5 4.2 1.7 5.1 0.6 0.8-1-0.2-3.4-1.2-3.7-1.4-0.4-2 0.7-3.4 0.6-1.8-0.1-3.8-2.1-5.1-3.7-1.4-1.7-2.2-3.9-3.1-5.8-0.8-1.8-1.9-3.7-3.3-5.6-1.3-1.7-2.6-3.8-4.2-4.8-1.5-0.9-3.1-0.7-5.5-1-1.8-0.2-3.7-1.2-5.2-0.6-2 1.1 0.8 4.1 1.4 4.9z" fill="#999"/>
    <path class="st4" d="m339.7 182.8c0.8 0.5 0.6 2.9 0.1 3.6-0.7-0.6-0.5-2.9-0.1-3.6z"/>
    <g fill="#fff">
     <path class="st5" d="m377.5 85.2c1.5-1.6 6-1.3 9.5-0.6 2 0.4 5.5 1.2 5.3 2.8-0.1 1.3-3.8 1.7-5.3 2-2 0.5-5.2 1.3-7 0.7-1.8-0.5-2.5-2.5-2.5-4.9z"/>
     <path class="st5" d="m406.5 89c0.1 0 0.1-0.1 0.2-0.1 3.1 0.3 6.6 1.7 9.4 3.6 2.9 1.9 5.8 3.4 7.6 5.2 0.8 0.8 1.5 2.1 2.5 3.4 0.9 1.1 2.1 2.1 2.7 3.1 0.8 1.3 1.8 4.5 3.2 4.3 1.1-0.2 0.6-2.2 1.5-2.6 1.6-0.7 4.7 1.7 4.7 3 0.1 1.5-2.1 2.4-3.2 3.2-0.7 0.5-1.4 1.5-2.1 2-1.2 0.9-2.7 1.7-3.9 2.5-1.5 1-3.1 2.3-5 2.4-1.7 0.1-3.2-0.5-5-0.9-2.4-0.6-4.5-0.9-5.5-2.6-0.9-1.6-0.9-5-1.5-7-1.8-5.4-4-9.7-6.2-15.1-0.6-2-1.5-3.9 0.6-4.4z"/>
     <path class="st5" d="m397 92.7c3.1-0.5 4.7 2.2 6 4.3 1.1 1.7 1.9 3.3 3 5.1 0.8 1.5 1.9 3.4 2.7 5.5 0.6 1.6 2.6 4.6 1.9 5.9-0.5 1.1-4.2 0.9-5.5 1.4-1.2 0.5-1.9 1-2.7 1.8-2.1 1.8-4.4 5-6.5 7.5-0.9 1.1-2 2.4-3.1 3.9-0.7 0.9-2.1 3.6-3.3 3.6-2 0-1.8-4-2.1-6.4-0.5-3.3-2.2-5.8-1.4-9 0.2-0.8 0.9-1.4 1.1-2.5 0.1-1.3-0.5-2.8-0.9-4.3-0.8-2.8-1.6-5-2.6-7.8-0.3-1-1.4-2.7-1.1-4 0.4-1.8 4.6-2.2 6.9-2.7 3.2-1 5.1-1.9 7.6-2.3z"/>
     <path class="st5" d="m386.1 150c0.4-2.8 0.1-5.6-0.7-8.4-0.4-1.4-1.2-3-2.6-2.8-2.1 0.2-1.7 3.7-2.1 6.5-0.3 1.6-1.2 3.7 0.4 4.7 1.1 0.8 2.3 0.2 3.9 0.8 0.1 1.5-0.3 2.1-0.2 3.2 0.1 2 2.2 4.7 1.2 6.7-0.8 1.6-4.1 1.4-5.8 2.3-0.9 0.4-1.9 1.3-2.1 2.3-0.4 1.4-0.2 3.8 0.5 5.1 0.7 1.4 2.7 1.2 3.8 2.5-0.6 1.8-1.5 3.2-2.1 4.7-1.3 3.1-3.4 5.3-5.6 8-1 1.3-2.4 2.6-2.9 3.9-0.5 1.7-0.5 5-0.5 6.6 0 2.9 0.9 6 1.9 7.5 1.1 1.7 2.7 2.4 4.6 3.8 2.2 1.6 4 4.4 7.6 3.8 2.5-0.4 4.9-2.7 7.8-2.5 1.7 0.1 2.7 1.5 4.3 2.5 1.2 0.7 2.7 1.2 3.3 2.3 0.8 1.4 0.5 4.2 0.7 5.9 0.2 1.9 0.8 3.5 1.7 5 0.8 1.4 2.3 3.1 2.6 4.5 0.9 3.6-2.1 6-1.3 9.6 0.7 3.1 2.7 5.1 3.9 8.7 1.1 3.3 1.3 7.3 2.7 9.7 1.1 1.9 3.8 3.7 3.8 5.9 0 1.6-1.4 2.8-2.1 4-1.3 2.2-2.1 4.5-3.7 6.2-3.2 3.4-7.4 4.9-13.1 6.4-1.9 0.5-7.2 2-8.3 0.1-0.8-1.4 0.7-4.8 0.9-7 0.3-2.9 0.7-5.4 0.8-7.5 0.3-4.4-0.1-8.2 0.7-11.9 0.5-2.3 1.7-5.2 0.4-7.5-2.2 1.1-0.9 4.6-0.9 6.9 0 2.8-0.9 5.6-1.8 8.2-1.7 5.3-2.7 9.9-4.9 15-1 2.4-2.3 5.2-4.5 5.8-1.4 0.4-3.7 0.1-5.6 0.2s-3.8 0.3-5.4 0.2c-3.4-0.1-8.2-0.2-10.3-1.2-1.4-0.6-3-2.4-3.9-3.4-1.6-2-3-4.5-4.3-6.8-1.3-2.5-2.1-5.1-3.3-7.7-0.4-0.9-1.3-1.9-1.4-2.7-0.3-1.7 0.1-4 0.7-5 0.8-1.3 3.6-1.9 5.5-2.5 2.1-0.7 4.6-0.9 7-1 5.2-0.2 11 0.5 13.2-2.6-1.4-1.1-3.9-0.7-6.1-0.6-2.1 0.1-4.3 0.4-6.2 0.6-2 0.3-4.3-0.1-6.3-0.4-2.2-0.2-4.3-0.5-4.9-1.9-0.3-0.7 0-2 0-3.3 0-2.5-0.8-4.7-0.8-6.5 0-3.6 3.2-5.1 3.6-8.9 0.4-3.4-1.7-6.9-0.7-9.4 1-2.4 5.6-1.9 6.7-3.7-2.1-1.1-5.7 0.6-7.4-1.3-0.7-0.8-0.6-1.8-0.9-2.9-0.7-2-2.4-4.8-4.7-5.2-1.3-0.2-2.8 0.5-4.4 0.9-2.2 0.6-4.5 1-6.8 0.4-1.8-0.5-2.9-1.9-4.5-2.5-1.2-0.5-2.8-0.8-4.2-0.8-1.3 0-2.6 0.6-4 0.5-0.9-0.1-1.9-0.7-3-0.8-0.9-0.1-2 0.3-2.8 0.1-1.2-0.2-2-1.5-3-2.1-1.5-1-3-1.3-4.2-2.7-0.8-0.9-1.5-2.4-2.3-3.7-0.8-1.4-2-2.7-2.3-3.9-0.2-0.8-0.2-2.2-0.4-4-0.2-1.7-0.3-3.2 0-4.2 0.6-1.7 2-2.4 3.3-3.6 1.5-1.3 2.4-3.2 4.6-3.4 1.2-0.1 2.5 0.3 3.4 0.8 1 0.6 3 3 4.2 2.7 1.9-0.4-0.3-5.4 1.7-6.3 1.6-0.7 4.1 0.8 6.3 1.3 3.3 0.7 7.9 0.4 11 0.7 2.6 0.3 3.5 1.9 4.4 4 0.9-1 1.2-2.7 2.6-3.2 1-0.4 2.4-0.1 3.9 0 2.1 0.1 5.2 0.2 7.9 0 2.8-0.2 5.6-0.1 7.9-0.2 1.4-0.1 2.6-0.6 3.7-0.6 2.8-0.1 5.1 0.1 6.9-1.7-1.5-0.2-2.9-0.7-4.4-0.7-0.8 0-1.9 0.4-2.8 0.5-1.4 0.1-2.9-0.1-4.4-0.1-3.2 0-6-0.4-8.7-0.8-1.5-0.2-2.7-0.1-4.3-0.1-1.7 0-5.2-0.7-5.8-1.5-0.8-0.9-1.1-5.7-0.9-7.4 0.1-2.4 0.8-4.9 1.2-7.3 0.4-2.5 0.6-5.1 1-7.6 0.4-2.4 0.9-4.8 1.4-7.1 0.3-1.2 0.4-2.4 0.7-3.6 0.3-1.1 1-2 1.2-3.1 0.3-1.2 0.1-2.9 0.7-3.7 0.8-1.1 4.6-1.4 6.4-1.4 4.4-0.1 8.3 1.8 11.9 0-1.7-1.6-4.2-1.6-7.6-1.9-1.6-0.2-6.7-0.7-7.2-2.1-0.7-1.9 1.7-7.2 2.5-8.4 1.6-2.3 5.1-3.3 7.5-5 2.9-2.1 7-4.9 7.8-9.1 0.5-2.4-0.5-4.5 2-5 3.9-0.7 5.4 2 6.6 4.7 0.8 1.7 1.6 3.5 2.1 5 0.7 2.1 0.8 4.1 1.4 5.8s1.3 3.5 1.8 5.3c0.3 1 0.2 2 0.5 3s0.8 2 1.1 3c0.3 1.1 0.4 2.2 0.7 3.2 0.2 0.9 0.7 1.7 0.9 2.6 0.6 2.4 0.1 5.2 1.9 6.9 0.6 0.3 1.3-0.1 2 0 1.3 0.6 1.8 1.7 3.4 2.3 1.9 0.7 5.1 0.4 4.6 3.2-0.3 1.4-2.5 1.4-4 1.9-0.8 0.3-1.7 0.8-2.1 1.1-1.8 1.3-2.6 5.1-5.8 4.2zm-46.3 36.3c0.5-0.7 0.7-3.1-0.1-3.6-0.4 0.8-0.6 3.1 0.1 3.6z"/>
     <path class="st5" d="m342.6 122.1c-2.2 0.7-4.1-0.6-5.9-1.3-1.6-0.6-4.6-1.1-4.6-3-0.1-1.8 2.2-2.4 2.8-3.7 0.7-1.4 0.9-3.8 0.1-5-1-1.5-5.6-1-6.2-3-0.4-1.5 2.3-5.1 4.4-5.3 0.9-0.1 2 0.1 2.7 0.5 1.6 0.8 3.1 3.2 4 5.3 1 2.5 0.5 4.8 0.6 7.8 0.2 3.1 2.5 4.6 2.1 7.7z"/>
     <path class="st5" d="m320.7 122.7c2.3-0.4 3.9 1 5.8 1.7 0.7 0.2 1.7 0.4 2.6 0.7s1.9 1 3.2 1.4c1.2 0.4 2.5 0.6 3.7 0.9 2.2 0.5 6.1 1.3 6.8 2.5 1.2 2.2 0.1 7.7-0.1 10.4-0.6 7.1-1.7 12.4-2.3 20.1-0.2 2.7-0.4 7.9-2.4 8.8s-6.2-0.8-8.2-1.2c-1.4-0.3-6.9-1.1-7.1-2.7-0.2-1.3 1-2.1 1.4-2.5 2-2 3.6-4.6 4.6-8.1 0.7-2.6 1-5.4 2.3-7.2 0.8-1.2 2.8-2.6 4.4-3.6 1.4-0.8 3.9-1.7 4.3-3.6 0.7-3.4-2.8-6.3-4.9-7.1-1.5-0.6-3.4-0.5-4.4-1.4-0.8-0.7-0.9-2.1-1.5-3.2-0.7-1.2-1.8-2.3-3-2.5-1.6-0.2-2.5 0.7-4.3 0.8-1 0.1-2.1-0.2-2.8 0-1.7 0.5-3 2.8-3.1 5.1-0.1 1.5 0.5 3-0.5 3.9-0.7 0.7-2.4 0.4-3.9 0.5-2.3 0.1-4 0.3-4.6-0.8-0.8-1.6 0.5-3.7 1.2-4.9 0.9-1.5 1.3-3.3 2.3-4.3 1.4-1.5 4.4-2.2 7.2-2.9 1.3-0.1 2.3-0.6 3.3-0.8z"/>
     <path class="st5" d="m406.4 128.4c0.7 1.2-0.6 2.4-0.5 3.8 0.2 1.8 3 3 1.9 6.2-0.4 1-3.2 4.1-3.8 1.2-0.3-1.7 1.3-4.2 1.2-7.1-0.1-1.8-0.5-3.3 1.1-4 0-0.1 0.1-0.1 0.1-0.1z"/>
     <path class="st5" d="m403.9 160.9c1.4 0.2 3.2 1.3 3.9 2.5 0.4 0.6 0.4 1.5 0.7 2.1 0.5 1.2 1.8 2.6 2.9 2.7 0.8 0.1 1.7-0.7 2.7-0.7 1.4 0 3.2 1.2 4.7 1.9s3.8 1.3 3.7 2.8c-0.1 1.7-4.1 1.8-6.5 2-3.1 0.3-5.3 0.9-7.4 1.1-2.8 0.2-4.2-0.8-5.3-2.3-0.8-1-1.4-2.6-2.7-3.2-4.4-2.3-9.2 1.3-13.3 0.7 0.1-1.6 1.3-2.7 2.1-4.2 1.5-2.6 3.3-6.3 8.1-5.1 1.5 0.4 4 2.4 4.9 3.7 0.7 1 1.1 2.9 2.4 3 1.1 0.1 2.1-1.1 2.1-2.3 0-1.7-2.7-2.8-3-4.7z"/>
     <path class="st5" d="m300.6 202.9c-1.3 0.5-2.9-0.5-4.5-1-1.6-0.4-3.4-0.8-4.7-1.5-1-0.6-2.1-1.6-3.2-2.5-1.1-0.8-2.2-1.6-3.2-2.5-0.8-0.7-1.4-1.7-2.1-2.4-0.6-0.5-1.2-0.8-1.8-1.3-0.9-0.8-1.8-2.1-2.9-3.2-2.3-2.5-3.7-3.6-4.6-7.7-0.4-1.6-0.9-8.4 1.2-7.9 2 0.4 3.2 2.5 4.9 4.3 2.1 2.2 5.1 3.5 6.9 6.4 0.5 0.9 0.8 1.9 1.3 2.8 0.7 1.2 1.7 2.4 2.5 3.8s1.2 3.2 1.9 4.4c1.4 2.3 4.2 2.5 6 3.9 0.8 0.6 1.2 1.4 1.5 2 0.4 0.7 0.9 1.1 0.8 2.4z"/>
     <path class="st5" d="m447.6 181.2c1.3-0.5 2.1 0.5 3.1 0.6 0.9 0.1 2.1-0.5 3.6-1 1.4-0.5 2.9-0.9 4-0.9 1.3-0.1 2.7 0.1 2.9 1.3 0.3 1.9-2.4 3-3.9 3.1-2.7 0.1-4.6-1.8-6.3-2-1.3-0.2-3.3 0.5-3.4-1.1z"/>
     <path class="st5" d="m428 186.2h0.2c1.2 0.9 2 2.3 3 3.4 0.9 1.1 2.2 2.3 2.1 4-1.5 0.2-2.5-1.5-3.2-2.8-0.7-1.4-1.8-3-2.1-4.6z"/>
     <path class="st5" d="m452.8 225.5c-2 2.1-2.3 4.5-4.4 6.2-1.8 1.5-4.4 1.8-6.7 3-1 0.5-2 1.4-3.1 1.8-1.3-1.1-0.9-3-0.8-4.6 0.1-1.8-0.3-3.7-0.4-5.3-0.4-7.4 3-12 5.3-17.2 0.5-1.1 1.3-2.4 2-3.7 0.8-1.3 1.7-2.8 1.5-4-0.2-1.9-2.2-2.3-3.6-3.1 1.5-1.8 4-2.7 6.3-3.6s4.9-1.7 7.2-2.6c3-1.2 5.5-3.3 8.7-4.4 3.3-1.1 4.4 4 4.5 6.9 0.2 5.3-1.3 9.6-2.5 14-0.6 2.1-1.3 4.2-2 6.2-1.6 4.3-2.3 7.1-5.8 9.6-1.3 0.9-3.1 2.7-4.6 2.5-0.9-0.3-0.8-1.2-1.6-1.7z"/>
     <path class="st5" d="m277.2 201.6c1.8-0.3 4.5 1.5 6.3 2.4s3.7 2.1 5.7 2.8c1 0.4 2 0.3 3.1 0.6 2.3 0.6 5 2 5.7 3.7 1.1 2.7-1.1 6.6-0.4 10.3 0.2 1.2 1.3 2.7 1.5 3.6 0.2 0.7 0.1 1.7 0.2 2.6 0.2 1.1 0.8 2.4 0.8 3.1 0 0.8-0.4 1.3-0.4 2 0 1.4 0.7 3 1.2 4.5 0.3 1 1.4 3.7 0.1 4.4-0.9 0.5-2.5-0.5-3.6-1.2-1.2-0.8-2.2-1.3-3.1-1.9-1-0.7-1.8-1.5-2.7-2.3-0.9-0.7-2-1.3-2.8-2-1.4-1.2-4.1-4.2-5.1-6-1-2-1.6-4.3-2.5-6.5-1.8-4.4-3-8.3-4.6-13.4-0.4-1.7-2-6.2 0.6-6.7z"/>
     <path class="st5" d="m300.8 231.1c3.3-0.6 4.4 4.1 6.9 5.7 2.4 1.6 6.9 1.6 9.8 3 1.2 0.6 2.3 1.6 3.3 3 0.8 1 2.4 3.1 1.4 4.4-1 1.4-5.3-0.5-6.9-0.8-1.1-0.2-2.3-0.5-3.6-0.8-1.2-0.3-2.6-0.4-3.4-0.8-1.8-0.9-3.3-4.6-4.3-6.4-1.2-2.6-3-4.8-3.2-7.3z"/>
     <path class="st5" d="m456 232.8c0.6 1.3-0.4 2.6-1.1 3.6-2 2.8-3.6 6.6-6.9 8.2-0.8-1.6 0.2-3.9 1.1-5.7 0.8-1.8 1.7-3.6 2.7-4.6 1-0.9 2.9-2 4.2-1.5z"/>
     <path class="st5" d="m438.8 236.5c2.5 1.9 6.3-2.4 8.1 0 0.4 0.6 0.3 2.3 0 3.3-0.5 1.5-1.8 3.1-2.6 5-1.6 3.7-3.7 6.3-5.8 9.4-1 1.5-1.7 3.3-2.9 4.8-0.9 1.2-2.5 2.1-4 3.2-1.4 1.1-2.6 2.2-4 3.1-1.9 1.2-3.9 1.9-6.1 3.2-1.3 0.8-4.8 3.7-6.3 2.3-1.1-1.1 0.9-6.5 1.4-7.4 0.8-1.5 2.2-2.9 3.4-3.6 0.9-0.5 2.1-0.7 3-1.4 1.9-1.6 2.3-5.3 4-7.5 1.6-2 4.5-2.6 5.2-4.7 0.5-1.5 0.1-3.1 0.6-4.3 1.2-2.9 3.7-3.7 6-5.4z"/>
     <path class="st5" d="m311.5 261.3c-3.1 0.2-5.1-2.6-7-4.3-1.7-1.5-2.8-3.1-4.3-5-0.7-1-1.8-2.1-1.4-3.4 2.9-0.4 7.7 1.9 9.4 3.8 1 1.1 1.5 2.8 2.1 4.3s1.7 3.2 1.2 4.6z"/>
     <path class="st5" d="m315.5 253.6c1.6-0.6 3.4 0.4 5.2 0.6 2.3 0.2 4 0.1 5.5 1s2.9 3 4.2 4.8c1.5 1.9 2.5 3.8 3.3 5.6 0.9 1.9 1.6 4.1 3.1 5.8 1.3 1.6 3.3 3.5 5.1 3.7 1.4 0.1 2-0.9 3.4-0.6 1 0.3 1.9 2.7 1.2 3.7-0.9 1.1-3.5-0.1-5.1-0.6-1.9-0.6-3.7-1-5-1.5-3.4-1.3-6.5-2.5-9-4.2-1.8-1.3-3-3.5-4-5.2-0.9-1.5-2.2-2.6-3.3-4-1-1.3-2-2.6-3.2-4.2-0.7-1-3.5-4-1.4-4.9z"/>
    </g>
   </g>
   <g fill="#999">
    <path class="st6" d="m243.7 408.4h-18.1c-2.7 0-3.9-0.7-3.9-2.4v-15.1c0-0.6 0.9-1.1 2-1.1s2 0.5 2 1.1v12.8c0 0.9 0.4 1.1 2 1.1h13.9c1.6 0 2-0.2 2-1.1v-12.8c0-0.6 0.9-1.1 2-1.1s2 0.5 2 1.1v15.1c-0.1 1.7-1.3 2.4-3.9 2.4z"/>
    <path class="st6" d="m277.7 405.9c0 1.7-1.2 2.4-3.9 2.4h-22v-18.6h22c2.7 0 3.9 0.7 3.9 2.4v4c0 1.7-1.2 2.4-4.8 2.4v0.6c3.5 0 4.8 0.7 4.8 2.4zm-4-9.9v-1.5c0-0.9-0.4-1.1-2-1.1h-15.9v3.7h15.9c1.7 0 2-0.2 2-1.1zm-17.9 4.7v4.1h15.9c1.6 0 2-0.2 2-1.1v-1.9c0-0.9-0.4-1.1-2-1.1z"/>
    <path class="st6" d="m284 408.4c-1.1 0-2-0.5-2-1.1v-1.4c0-0.6 0.9-1.1 2-1.1h17.9c1.6 0 2-0.2 2-1.1v-3h-18c-2.7 0-3.9-0.7-3.9-2.4v-7.4c0-0.6 0.9-1.1 2-1.1s2 0.5 2 1.1v5.1c0 1 0.4 1.1 2 1.1h15.9v-6.2c0-0.6 0.9-1.1 2-1.1s2 0.5 2 1.1v15.1c0 1.7-1.2 2.4-3.9 2.4z"/>
    <path class="st6" d="m325.9 407.3c0 0.6-0.9 1.1-2 1.1s-2-0.5-2-1.1v-13.9h-9c-1.1 0-2-0.5-2-1.1v-1.4c0-0.6 0.9-1.1 2-1.1h21.9c1.1 0 2 0.5 2 1.1v1.4c0 0.6-0.9 1.1-2 1.1h-9v13.9z"/>
    <path class="st6" d="m362 408.4h-18.1c-2.6 0-3.9-0.7-3.9-2.4v-13.7c0-1.7 1.2-2.4 3.9-2.4h18.1c2.7 0 3.9 0.7 3.9 2.4v13.7c0 1.7-1.2 2.4-3.9 2.4zm-0.1-13.9c0-0.9-0.4-1.1-2-1.1h-13.9c-1.6 0-2 0.2-2 1.1v9.2c0 0.9 0.4 1.1 2 1.1h13.9c1.6 0 2-0.2 2-1.1z"/>
    <path class="st6" d="m378.2 393.4h-6.7c-1.1 0-2-0.5-2-1.1v-1.4c0-0.6 0.9-1.1 2-1.1h8.7c1.1 0 2 0.5 2 1.1v12.8c0 0.9 0.4 1.1 2 1.1h5.2c1.6 0 2-0.2 2-1.1v-12.8c0-0.6 0.9-1.1 2-1.1s2 0.5 2 1.1v15.1c0 1.7-1.2 2.4-3.9 2.4h-9.4c-2.7 0-3.9-0.7-3.9-2.4z"/>
    <path class="st6" d="m425.6 407.3c0 0.6-0.9 1.1-2 1.1s-2-0.5-2-1.1v-6.6h-17.9v6.6c0 0.6-0.9 1.1-2 1.1s-2-0.5-2-1.1v-15.1c0-1.7 1.2-2.4 3.9-2.4h18.1c2.7 0 3.9 0.7 3.9 2.4zm-6-13.9h-13.9c-1.6 0-2 0.2-2 1.1v2.6h17.9v-2.6c0-1-0.4-1.1-2-1.1z"/>
    <path class="st6" d="m429.8 405.9v-13.7c0-1.7 1.2-2.4 3.9-2.4h20c1.1 0 2 0.5 2 1.1v1.4c0 0.6-0.9 1.1-2 1.1h-17.9c-1.6 0-2 0.2-2 1.1v9.2c0 0.9 0.4 1.1 2 1.1h17.9c1.1 0 2 0.5 2 1.1v1.4c0 0.6-0.9 1.1-2 1.1h-20c-2.6 0-3.9-0.7-3.9-2.5z"/>
    <path class="st6" d="m458.8 387.4v-0.3c0-0.6 0.9-1.1 2-1.1h9.6c1.1 0 2 0.5 2 1.1v0.3c0 0.6-0.9 1.1-2 1.1h-9.6c-1.1 0-2-0.5-2-1.1zm4.5 19.9c0 0.6-0.9 1.1-2 1.1s-2-0.5-2-1.1v-16.4c0-0.6 0.9-1.1 2-1.1s2 0.5 2 1.1z"/>
    <path class="st6" d="m482.4 398.2v-6c0-1.7 1.2-2.4 3.9-2.4h20c1.1 0 2 0.5 2 1.1v1.4c0 0.6-0.9 1.1-2 1.1h-17.9c-1.6 0-2 0.2-2 1.1v1.5c0 1 0.4 1.1 2 1.1h16c2.7 0 3.9 0.7 3.9 2.4v6.4c0 1.7-1.2 2.4-3.9 2.4h-20c-1.1 0-2-0.5-2-1.1v-1.4c0-0.6 0.9-1.1 2-1.1h17.9c1.6 0 2-0.2 2-1.1v-1.9c0-0.9-0.4-1.1-2-1.1h-16c-2.6 0.1-3.9-0.7-3.9-2.4z"/>
    <path class="st6" d="m512.6 390.9c0-0.6 0.9-1.1 2-1.1s2 0.5 2 1.1v13.9h12.7c1.1 0 2 0.5 2 1.1v1.4c0 0.6-0.9 1.1-2 1.1h-16.7z"/>
    <path class="st6" d="m556.5 408.4h-18.1c-2.7 0-3.9-0.7-3.9-2.4v-15.1c0-0.6 0.9-1.1 2-1.1s2 0.5 2 1.1v12.8c0 0.9 0.4 1.1 2 1.1h13.9c1.6 0 2-0.2 2-1.1v-12.8c0-0.6 0.9-1.1 2-1.1s2 0.5 2 1.1v15.1c0 1.7-1.2 2.4-3.9 2.4z"/>
    <path class="st6" d="m570.7 400.7c-1.6 0-2 0.2-2 1.1v3h19.9c1.1 0 2 0.5 2 1.1v1.4c0 0.6-0.9 1.1-2 1.1h-23.9v-8.9c0-1.7 1.2-2.4 3.9-2.4h16c1.6 0 2-0.2 2-1.1v-2.6h-19.9c-1.1 0-2-0.5-2-1.1v-1.4c0-0.6 0.9-1.1 2-1.1h23.9v8.5c0 1.7-1.2 2.4-3.9 2.4z"/>
    <path class="st6" d="m620.8 405.9c0 1.7-1.2 2.4-3.9 2.4h-22v-18.6h22c2.7 0 3.9 0.7 3.9 2.4v4c0 1.7-1.2 2.4-4.8 2.4v0.6c3.5 0 4.8 0.7 4.8 2.4zm-4-9.9v-1.5c0-0.9-0.4-1.1-2-1.1h-15.9v3.7h15.9c1.6 0 2-0.2 2-1.1zm-18 4.7v4.1h15.9c1.6 0 2-0.2 2-1.1v-1.9c0-0.9-0.4-1.1-2-1.1z"/>
    <path class="st6" d="m627 408.4c-1.1 0-2-0.5-2-1.1v-1.4c0-0.6 0.9-1.1 2-1.1h18c1.6 0 2-0.2 2-1.1v-3h-18c-2.7 0-3.9-0.7-3.9-2.4v-7.4c0-0.6 0.9-1.1 2-1.1s2 0.5 2 1.1v5.1c0 1 0.4 1.1 2 1.1h15.9v-6.2c0-0.6 0.9-1.1 2-1.1s2 0.5 2 1.1v15.1c0 1.7-1.2 2.4-3.9 2.4z"/>
   </g>
   <path d="m97.5 328.6h58.5v-20.2c0-2 2.9-3.6 6.5-3.6s6.5 1.6 6.5 3.6v53.5c0 2-2.9 3.6-6.5 3.6s-6.5-1.6-6.5-3.6v-21.5h-58.5v21.5c0 2-2.9 3.6-6.5 3.6s-6.5-1.6-6.5-3.6v-53.5c0-2 2.9-3.6 6.5-3.6s6.5 1.6 6.5 3.6z"/>
   <path d="m254.8 365.5h-59.2c-8.7 0-12.7-2.4-12.7-8v-44.8c0-5.6 4-8 12.7-8h59.2c8.7 0 12.7 2.4 12.7 8v44.8c-0.1 5.6-4.1 8-12.7 8zm-0.4-45.4c0-3.1-1.2-3.6-6.5-3.6h-45.4c-5.3 0-6.5 0.5-6.5 3.6v30c0 3.1 1.2 3.6 6.5 3.6h45.4c5.3 0 6.5-0.5 6.5-3.6z"/>
   <path d="m281.3 332.4v-19.6c0-5.6 4-8 12.7-8h65.3c3.6 0 6.5 1.6 6.5 3.6v4.5c0 2-2.9 3.6-6.5 3.6h-58.5c-5.3 0-6.5 0.5-6.5 3.6v4.9c0 3.1 1.2 3.6 6.5 3.6h52.3c8.7 0 12.7 2.4 12.7 8v20.9c0 5.6-4 8-12.7 8h-65.3c-3.6 0-6.5-1.6-6.5-3.6v-4.5c0-2 2.9-3.6 6.5-3.6h58.5c5.3 0 6.5-0.5 6.5-3.6v-6.2c0-3.1-1.2-3.6-6.5-3.6h-52.3c-8.6-0.1-12.7-2.5-12.7-8z"/>
   <path d="m424.8 361.9c0 2-2.9 3.6-6.5 3.6s-6.5-1.6-6.5-3.6v-45.4h-29.2c-3.6 0-6.5-1.6-6.5-3.6v-4.5c0-2 2.9-3.6 6.5-3.6h71.4c3.6 0 6.5 1.6 6.5 3.6v4.5c0 2-2.9 3.6-6.5 3.6h-29.2z"/>
   <path d="m470.7 304.8h78c3.6 0 6.5 1.6 6.5 3.6v4.5c0 2-2.9 3.6-6.5 3.6h-65v12.1h65c3.6 0 6.5 1.6 6.5 3.6v4.5c0 2-2.9 3.6-6.5 3.6h-65v13.4h65c3.6 0 6.5 1.6 6.5 3.6v4.5c0 2-2.9 3.6-6.5 3.6h-78z"/>
   <path d="m566.9 332.4v-19.6c0-5.6 4-8 12.7-8h65.3c3.6 0 6.5 1.6 6.5 3.6v4.5c0 2-2.9 3.6-6.5 3.6h-58.5c-5.3 0-6.5 0.5-6.5 3.6v4.9c0 3.1 1.2 3.6 6.5 3.6h52.3c8.7 0 12.7 2.4 12.7 8v20.9c0 5.6-4 8-12.7 8h-65.3c-3.6 0-6.5-1.6-6.5-3.6v-4.5c0-2 2.9-3.6 6.5-3.6h58.5c5.3 0 6.5-0.5 6.5-3.6v-6.2c0-3.1-1.2-3.6-6.5-3.6h-52.3c-8.7-0.1-12.7-2.5-12.7-8z"/>
   <path class="st6" d="m582.3 384.6c-0.6 0-1 0.4-1.1 0.7-0.3 0.6-0.6 0.6-1.6 0.6h-6.2c-0.9 0-1.1-0.1-1.1-0.7v0.2c0-0.4-0.5-0.7-1.1-0.7s-1.1 0.3-1.1 0.7v1.3c0 1.1 0.7 1.6 2.2 1.6h8.6c1.5 0 1.8-0.5 2.2-1.6l0.4-1.2c0.1-0.6-0.6-0.9-1.2-0.9z" fill="#999"/>
  </g>
 </g>
 <style type="text/css">.st0{fill:none;}
	.st1{fill:#F7BC60;}
	.st2{fill:#FFFFFF;}
	.st3{fill-rule:evenodd;clip-rule:evenodd;fill:#999999;}
	.st4{fill-rule:evenodd;clip-rule:evenodd;}
	.st5{fill-rule:evenodd;clip-rule:evenodd;fill:#FFFFFF;}
	.st6{fill:#999999;}</style>
</svg>
