<?xml version="1.0" encoding="UTF-8"?>
<svg width="47.311mm" height="47.19mm" version="1.1" viewBox="0 0 47.311 47.19" xmlns="http://www.w3.org/2000/svg">
 <g transform="translate(-126.78 -50.399)">
  <g transform="matrix(.60115 0 0 .60115 120.35 43.967)" fill="#fff">
   <g fill="#fff">
    <path d="m74 55.5c-0.8-0.8-0.8-2 0-2.8s2-0.8 2.8 0l1.1 1.1 11.5-11.5-8-8c-4.4 3.3-10.6 3-14.6-1-2.1-2.1-3.3-4.9-3.3-7.9 0-2.5 0.8-4.8 2.3-6.7l-8-8-11.5 11.4 1.1 1.1c0.8 0.8 0.8 2 0 2.8-0.4 0.4-0.9 0.6-1.4 0.6s-1-0.2-1.4-0.6l-1.2-1-32.7 32.7 8 8c4.4-3 10.4-2.6 14.3 1.3s4.3 9.9 1.3 14.2l8 8 32.7-32.6zm-15.3-18.1c-0.4 0.4-0.9 0.6-1.4 0.6s-1-0.2-1.4-0.6l-4.7-4.7c-0.8-0.8-0.8-2 0-2.8s2-0.8 2.8 0l4.7 4.7c0.8 0.8 0.8 2 0 2.8zm11.4 11.4c-0.4 0.4-0.9 0.6-1.4 0.6s-1-0.2-1.4-0.6l-4.7-4.7c-0.8-0.8-0.8-2 0-2.8s2-0.8 2.8 0l4.7 4.7c0.8 0.8 0.8 2 0 2.8z" fill="#fff"/>
   </g>
  </g>
 </g>
</svg>
