<?xml version="1.0" encoding="UTF-8"?>
<svg width="23.639mm" height="27.752mm" version="1.1" viewBox="0 0 23.639 27.752" xmlns="http://www.w3.org/2000/svg">
 <g transform="translate(-137.72 -62.539)">
  <g transform="matrix(.17881 0 0 .17881 181.56 29.012)" fill="#fff">
   <polygon points="-172.4 267.7 -171.2 267.9 -172.4 268.3" fill="#fff"/>
   <path d="m-185.5 267.9s-0.2 0 0 0c-0.2-0.2 0 0 0 0z" fill="#fff"/>
   <path d="m-179 287.2c-1.3 0-2.2-0.8-2.2-2.1v-56.5c0-1.2 0.9-2.1 2.2-2.1s2.2 0.8 2.2 2.1v56.5c0 1.1-0.9 2.1-2.2 2.1z" fill="#fff"/>
   <g fill="#fff">
    <path d="m-182.7 262.6v4.9c-6.5-2.9-12.5-6.5-17.2-11.4-0.9-0.9-0.9-2.2 0-3.1s2.2-0.9 3.1 0c3.9 4.1 8.8 7 14.1 9.6z" fill="#fff"/>
   </g>
   <path d="m-187.7 265.8s-0.2 0 0 0c-5.7 1.2-11.3 0.6-15.2-3.7s-5.6-11.7-4.8-22c0.1-1.5 2.1-1.9 2.8-0.6 0 0 2.1 3.8 6.7 7 1.5 1 3.4 1.8 5.6 2.5 1.2 0.3 3.1 1 4.8 2.3v4.5c-2.8-1.5-5.1-3.1-7.2-5-1.6-1.8-4.4-1.8-6.2-0.1-1.8 1.6-1.8 4.5-0.1 6.2 3.8 4 8.6 6.5 13.6 8.9-0.2-0.2 0 0 0 0z" fill="#fff"/>
   <path d="m-150.2 256.3c-1.1 15.7-7.6 28-22.4 23.4v-0.4c3.2-1.1 6.5-2.1 9.5-3.9 2.6-1.4 3.5-4.6 2.1-7.2s-4.6-3.5-7-2.1c-1.4 0.7-3 1.4-4.6 1.9v-3.5c4.4-2.6 7-1.6 11.6-3.7 5.1-2.5 7.6-5.8 7.6-5.8 1.1-1.3 3.4-0.4 3.2 1.3z" fill="#fff"/>
   <g fill="#fff">
    <path d="m-165.5 273.8c-3.3 1.8-6.7 3.1-10 4v-4.7c2.7-0.9 5.3-2 7.8-3.3 1.1-0.7 2.5-0.2 3.1 0.9s0.2 2.5-0.9 3.1z" fill="#fff"/>
   </g>
   <path d="m-203 200.8c2.1-3.2 7.2-3.5 11.8-0.7 3.3 2.1 7.7 7.7 9.4 11.3-1.3 0.8-2.1 2.2-2.4 3.6-3.8 0.2-10.8-1.2-14.2-3.5-4.5-2.6-6.5-7.6-4.6-10.7zm24.1 11.9c1.8 0.1 2.9 1.4 2.9 3.2-0.1 1.8-1.4 2.9-3.2 2.9-1.6-0.1-2.9-1.4-2.9-3.2 0.1-1.6 1.4-2.9 3.2-2.9zm0.9-25.2c3.7 0.2 6.6 4.6 6.5 10-0.2 3.9-2.8 10.5-5.2 13.6-1.3-0.6-2.9-0.7-4.3-0.1-2.1-3.2-4.4-10.1-4.2-14 0.3-5.3 3.5-9.5 7.2-9.5zm23.9 15c1.8 3.3-0.6 8.1-5.3 10.5-3.5 1.8-10.5 3-14.4 2.4-0.1-1.5-0.9-2.8-2.1-3.8 1.9-3.5 6.6-8.8 10.1-10.6 4.7-2.4 9.9-1.8 11.7 1.5zm-1 28.2c-1.9 3.3-7.2 3.5-11.8 0.7-3.3-2.1-7.7-7.7-9.2-11.3 1.1-0.7 2.1-2 2.2-3.6 4-0.2 10.9 1.4 14.2 3.5 4.5 2.8 6.6 7.6 4.6 10.7zm-25 13.3c-3.7-0.2-6.6-4.6-6.3-9.9 0.1-4.1 2.8-10.7 5.1-13.7 1.2 0.8 2.9 0.7 4.3 0.1 2.2 3.4 4.2 10.1 4 14.1 0 5.3-3.2 9.4-7.1 9.4zm-23.9-15c-1.8-3.3 0.7-7.9 5.3-10.5 3.5-1.8 10.6-2.8 14.5-2.5 0.1 1.5 0.7 3.1 1.9 3.9-1.7 3.4-6.5 8.7-10 10.5-4.6 2.6-9.9 1.9-11.7-1.4z" fill="#fff"/>
   <path d="m-170.5 342.6h-71.8c-1.3 0-2.3-1-2.5-2.3-0.8-5.5-0.3-11.1 1.5-16.9 3.3-11.3 14.3-26.8 29.5-31.5"/>
   <path d="m-190.6 304.4 2.3 5.5-3.8 26.7-21.8-44.5c1.8-0.8 3.3-1 4.5-1.5l11.3 16.4c1 1.3 2.8 1.5 3.8 0.5z"/>
   <path d="m-197.1 299.4-8-11.8c2.5-3.5 5-7 6.8-9.3l13 11.1c1.3 1 1.3 2.8 0 3.8l-8 6.5c-1.3 1.2-3 0.9-3.8-0.3z"/>
   <polyline points="-191.3 305 -179 294.8 -167.3 304.4"/>
   <path d="m-164.8 299.9-8-6.5c-1.3-1-1.3-2.8 0-3.8l13-11.1c1.5 2 4.3 5.5 6.8 9.3l-8 11.8c-0.8 1-2.5 1.3-3.8 0.3z"/>
   <path d="m-144 292.1-21.8 44.5-4.8 6 3.3-38.3 3.8 3.3c1 1 2.8 0.8 4-0.5l11.3-16.4c0.9 0.1 2.4 0.6 4.2 1.4z"/>
   <path d="m-144 292.1c5.3 3 13.8 5.8 21 15.1 0.3 0.3 11.8 14.8 9.8 33.5-0.3 1.3-1.3 2-2.5 2h-54.8"/>
   <polygon points="-167.3 304.4 -169.6 342.6 -192.4 342.6 -190.3 305 -184.4 304 -169.6 304"/>
  </g>
 </g>
</svg>
