<?xml version="1.0" encoding="UTF-8"?>
<svg version="1.1" viewBox="0 0 306.82 58.536" xml:space="preserve" xmlns="http://www.w3.org/2000/svg"><g transform="matrix(1.3333 0 0 -1.3333 -625.94 372.64)" fill="#fefefe" fill-rule="evenodd"><path d="m666.36 277.98h13.699l-2.3558-8.7919h-13.699zm-66.965 0h13.699l-2.3558-8.7919h-47.969l2.3559 8.7919h13.699l8.1343-8.1785zm-25.826-19.61-5.705-21.292h-13.699l6.2479 23.318h47.969l-6.2479-23.318h-13.699l5.7048 21.292-12.641-8.7919zm-67.206-21.292 15.109 23.318h27.178l2.1189-23.318h-13.699l-1.3198 14.526h-6.2751l-9.4124-14.526zm20.805 32.11 5.6631 8.74 14.221 0.0519 0.7989-8.7919zm-15.761-8.792-1.3005-4.854c-3.0393-11.344-6.5747-18.464-18.464-18.464h-20.689l2.3555 8.7922h17.834c2.2799 0 3.1141 1.6483 3.6507 3.6505l2.9141 10.876zm-29.494 17.584h34.206l-2.3559-8.7919h-34.206zm144.01-26.376-3.8923-14.526h-13.699l5.3173 19.844h2e-4l0.9309 3.4741h27.201c2.4183 0 4.9255 1.9783 5.5735 4.396 0.6477 2.418-0.7999 4.396-3.2176 4.396h-27.201l2.3559 8.7919h30.357c7.2533 0 11.598-5.9346 9.6542-13.188-1.9434-7.2533-9.4688-13.188-16.722-13.188zm49.422 8.7919-3.8926-14.526h26.616l-2.3559-8.7922h-40.315l6.2481 23.318z"/><path d="m339.23 134.86h13.699l-2.3559-8.7919h-13.699zm-66.965 0h13.699l-2.3559-8.7919h-47.969l2.3558 8.7919h13.699l8.1343-8.1785zm-25.826-19.61-5.7051-21.292h-13.699l6.2478 23.318h47.969l-6.2478-23.318h-13.699l5.7047 21.292-12.641-8.792zm-67.206-21.292 15.109 23.318h27.178l2.1189-23.318h-13.699l-1.3198 14.526h-6.275l-9.4125-14.526zm20.806 32.11 5.663 8.7401 14.221 0.0518 0.7988-8.7919zm-15.761-8.7919-1.3006-4.8544c-3.0393-11.344-6.5746-18.464-18.464-18.464h-20.689l2.3556 8.7919h17.834c2.2799 0 3.1142 1.6484 3.6508 3.6508l2.914 10.876zm-29.494 17.584h34.206l-2.3558-8.7919h-34.206zm144.01-26.376-3.8922-14.526h-13.699l5.3172 19.844h3e-4l0.9309 3.4745h27.201c2.4182 0 4.9254 1.978 5.5734 4.3959 0.6478 2.4177-0.7999 4.396-3.2176 4.396h-27.201l2.3558 8.7919h30.357c7.2536 0 11.598-5.9346 9.6545-13.188-1.9434-7.2535-9.4688-13.188-16.722-13.188zm49.422 8.792-3.8925-14.526h26.616l-2.3558-8.7919h-40.315l6.2481 23.318z"/><path d="m14.173 581.1h813.54v-566.93h-813.54zm-14.173 14.173h841.89v-595.28h-841.89z"/></g></svg>
