<?xml version="1.0" encoding="UTF-8"?>
<svg width="38.391mm" height="43.074mm" version="1.1" viewBox="0 0 38.391 43.074" xmlns="http://www.w3.org/2000/svg">
 <g transform="translate(-131.77 -52.618)" fill="#fff">
  <g transform="matrix(.26458 0 0 .26458 198.34 -5.3261)">
   <path d="m-119.7 311.5h-118.6c-7.3 0-13.3 5.4-13.3 12.1v46.1c0 6.7 6 12.1 13.3 12.1h37.8c5.4 0 10-3.5 11-8.3l4.2-20c0.7-3.1 4-5.2 7.4-4.6 2.6 0.4 4.6 2.3 5.1 4.6l4.2 20c1 4.8 5.6 8.3 11 8.3h37.8c7.3 0 13.3-5.4 13.3-12.1v-46.1c0.1-6.7-5.9-12.1-13.2-12.1zm8.5 58.2c0 4.2-3.8 7.7-8.5 7.7h-37.8c-3.1 0-5.7-2-6.2-4.7l-4.2-20c-1.2-5.5-7-9.1-13.1-8.1-4.5 0.8-8 4-8.9 8.1l-4.2 20c-0.6 2.7-3.2 4.7-6.2 4.7h-37.8c-4.7 0-8.5-3.4-8.5-7.7v-46.1c0-4.2 3.8-7.7 8.5-7.7h118.6c4.7 0 8.5 3.4 8.5 7.7v46.1z"/>
   <path d="m-215.3 320.3c-12 0-21.8 8.9-21.8 19.8s9.8 19.8 21.8 19.8 21.8-8.9 21.8-19.8c0-11-9.8-19.8-21.8-19.8zm0 35.1c-9.4 0-16.9-6.9-16.9-15.4s7.6-15.4 16.9-15.4 16.9 6.9 16.9 15.4-7.5 15.4-16.9 15.4z"/>
   <path d="m-142.7 320.3c-12 0-21.8 8.9-21.8 19.8s9.8 19.8 21.8 19.8 21.8-8.9 21.8-19.8c0-11-9.8-19.8-21.8-19.8zm0 35.1c-9.4 0-16.9-6.9-16.9-15.4s7.6-15.4 16.9-15.4 16.9 6.9 16.9 15.4-7.6 15.4-16.9 15.4z"/>
  </g>
  <path d="m162.07 71.773-2.1431-2.5135-0.0529 0.97896-2.3283-1.1642v-8.2285-0.02646-0.02646-0.02646-0.02646-0.02646-0.02646-0.02646s0-0.02646-0.0265-0.02646v-0.02646l-0.0265-0.02646s-0.0264-0.02646-0.0264-0.02646l-0.0265-0.02646h-0.0265s-0.0265 0-0.0265-0.02646h-0.0265l-5.9531-2.9633v-2.2754l0.89958 0.37042-1.3229-3.0162-1.27 3.0427 0.89959-0.37042v2.249l-5.9531 2.9633s-0.0265 0-0.0265 0.02646c0 0-0.0265 0-0.0265 0.02646h-0.0265l-0.0265 0.02646s-0.0265 0-0.0265 0.02646l-0.0265 0.02646v0.02646s0 0.02646-0.0265 0.02646v0.02646 0.02646 0.02646 0.02646 0.02646 0.02646 0.02646 8.2285l-2.3283 1.1642-0.0529-0.97896-2.1431 2.5135 3.2808-0.21167-0.74083-0.635 2.3812-1.1906 5.9796 2.9898h0.0265 0.0265c0.0265 0 0.0529 0.02646 0.0529 0.02646h0.0794 0.0794c0.0264 0 0.0529 0 0.0529-0.02646h0.0265 0.0265l5.9796-2.9898 2.3812 1.1906-0.74083 0.635zm-10.689-7.62 5.3975-2.6988v7.2231l-5.3975-2.6988zm4.8948-3.3073-4.9212 2.4606v-4.9212zm-5.6885 2.4606-4.9212-2.4606 4.9212-2.4606zm-5.371-1.8521 5.3975 2.6988v1.8256l-5.3975 2.6988zm5.371 5.3975v4.9212l-4.9212-2.4606zm0.79375 4.9212v-4.9212l4.9212 2.4606z" stroke-width=".26458"/>
 </g>
</svg>
