<?xml version="1.0" encoding="UTF-8"?>
<svg width="12.501mm" height="4.7882mm" version="1.1" viewBox="0 0 12.501 4.7882" xmlns="http://www.w3.org/2000/svg" xmlns:xlink="http://www.w3.org/1999/xlink">
 <defs>
  <rect id="SVGID_1_" x="425.5" y="241.5" width="108.2" height="76"/>
 </defs>
 <g transform="translate(-12.727 -85.304)">
  <g transform="matrix(.26458 0 0 .26458 -109.79 16.774)">
   <clipPath id="SVGID_2_">
    <use width="100%" height="100%" xlink:href="#SVGID_1_"/>
   </clipPath>
   <g>
    <text x="708.51636" y="-387.57651" fill="#5186ab" font-family="'Myriad Pro Light'" font-size="17.333px" font-weight="300" stroke-width="1.3333">
     <tspan x="708.51636 712.19104 720.85767 729.31635 737.77502 746.44171" y="-387.57651" stroke-width="1.3333">| 11 |</tspan>
    </text>
    <path d="m473.97 261.08c-1.3534-0.94306-2.8325-1.7084-4.2093-2.0695-0.69838 1.9868-0.39903 3.5472 0.12568 5.5194 1.7488-0.81406 3.4176-1.4628 4.0836-3.4499m-3.1896 1.5581c-0.16401-0.77106-0.15201-1.5001-0.0217-2.1748 0.5327 0.18534 1.0637 0.43236 1.5788 0.72872-0.32702 0.55437-0.85872 1.0454-1.5571 1.4461" fill="#58585a"/>
    <path d="m465.49 260c-1.1077 0.96707-2.0211 2.3885-2.4222 4.0516 1.9818 1.1281 4.3946 1.2054 6.5481 0.56171-0.87239-1.9111-2.3902-3.4629-4.126-4.6133m-0.72571 3.2012c0.22335-0.54403 0.52237-1.0357 0.87673-1.4631 0.67171 0.5117 1.2681 1.1204 1.7588 1.8478-0.91874 0.042-1.8245-0.0843-2.6355-0.38469" fill="#b1b3b4"/>
    <path d="m470 264.79c1.2151 2.5955 3.5416 4.588 6.1624 5.6821 1.0794-1.5061 1.5488-3.4019 1.0991-5.2154-2.3072-0.84873-4.871-1.1531-7.2615-0.4667m5.2017 3.2016c-1.1004-0.60271-2.0185-1.3534-2.7209-2.1475 1.0331-0.0787 2.0982 0.0277 3.2026 0.31603-0.0293 0.59904-0.18468 1.2204-0.4817 1.8315" fill="#d9dadb"/>
    <path d="m464.12 270.4c1.1164 1.9105 3.0249 3.3012 5.2657 3.4802 0.83573-2.9729 1.5254-6.0118 0.34336-9.0046-2.6198 0.87873-4.545 3.0242-5.6091 5.5244m4.506-3.1742c0.08 1.1101-0.0417 2.3802-0.42369 3.8116-0.71972-0.24701-1.3664-0.64771-1.9101-1.1544 0.67138-1.1691 1.4588-2.0248 2.3338-2.6572" fill="#87888a"/>
    <path d="m485.29 272.88c-1.1114 0-2.0055 0.79406-2.0055 2.1478 0 1.2784 0.8524 2.0808 1.9388 2.0808h8e-3c0.96107 0 2.0055-0.65205 2.0055-2.1562 0-1.2284-0.78539-2.0725-1.9471-2.0725m-0.0334 3.6769h-8e-3c-0.71039 0-1.2118-0.66838-1.2118-1.5544 0-0.76871 0.37603-1.5711 1.2368-1.5711 0.86906 0 1.2118 0.86105 1.2118 1.5461 0 0.9194-0.52637 1.5794-1.2284 1.5794m-4.287-3.6769c-0.27569 0-0.5347 0.0753-0.75205 0.20902-0.22569 0.117-0.40936 0.30902-0.52638 0.51804h-0.0166v-2.5239h-0.73572v5.9334h0.73572v-2.4402c0-0.14201 8e-3 -0.25069 0.05-0.35103 0.14202-0.40103 0.50971-0.73539 0.98608-0.73539 0.69338 0 0.93606 0.54338 0.93606 1.1951v2.3315h0.73538v-2.4068c0-1.3954-0.86939-1.7298-1.4124-1.7298m-4.22-0.9694c0.46804 0 0.86073 0.10034 1.1281 0.23401l0.18402-0.6017c-0.19235-0.092-0.64371-0.24202-1.3371-0.24202-1.7468 0-2.9415 1.1864-2.9415 2.9495 0 1.8471 1.1868 2.8499 2.7742 2.8499 0.68538 0 1.2284-0.13368 1.4874-0.26769l-0.14201-0.58503c-0.29236 0.14234-0.74372 0.23435-1.1948 0.23435-1.3621 0-2.1562-0.87741-2.1562-2.2565 0-1.4708 0.87739-2.3148 2.1978-2.3148m15.861 0.9694c-0.38437 0-0.64338 0.10034-0.88573 0.28435-0.16735 0.12534-0.33436 0.29236-0.4597 0.52638h-0.0166c-0.17569-0.47638-0.59338-0.81073-1.1368-0.81073-0.67672 0-1.0527 0.35936-1.2784 0.74372h-0.025l-0.0334-0.65171h-0.64371c0.0166 0.33403 0.0337 0.66838 0.0337 1.0947v2.9499h0.71838v-2.4402c0-0.12534 0.017-0.25069 0.0587-0.35936 0.11702-0.3677 0.4597-0.73539 0.91107-0.73539 0.5597 0 0.84372 0.4597 0.84372 1.1031v2.4318h0.71872v-2.5072c0-0.12534 0.025-0.25902 0.0587-0.36769 0.13335-0.3507 0.45104-0.66005 0.8774-0.66005 0.58471 0 0.87739 0.4597 0.87739 1.2451v2.2898h0.71872v-2.3818c0-1.4038-0.79405-1.7548-1.3371-1.7548m5.9081 0.092h-0.73539v2.4735c0 0.14201-0.025 0.27569-0.0666 0.37603-0.13401 0.33436-0.4767 0.67672-0.96974 0.67672-0.66004 0-0.90239-0.52637-0.90239-1.2951v-2.2312h-0.73539v2.3648c0 1.4124 0.76039 1.7718 1.3954 1.7718 0.71906 0 1.1534-0.42637 1.3374-0.75206h0.0163l0.042 0.66005h0.65171c-0.025-0.31769-0.0334-0.68538-0.0334-1.1114zm5.6491-0.092c-1.1114 0-2.0058 0.79406-2.0058 2.1478 0 1.2784 0.85273 2.0808 1.9388 2.0808h8e-3c0.96107 0 2.0058-0.65205 2.0058-2.1562 0-1.2284-0.78539-2.0725-1.9471-2.0725m-0.0334 3.6769h-8e-3c-0.71038 0-1.2118-0.66838-1.2118-1.5544 0-0.76871 0.37603-1.5711 1.2368-1.5711 0.86907 0 1.2118 0.86105 1.2118 1.5461 0 0.9194-0.52671 1.5794-1.2284 1.5794m-3.5099-4.5543-0.71872 0.22567v0.74373h-0.62671v0.56004h0.62671v2.1978c0 0.47603 0.0837 0.83539 0.28435 1.0611 0.17534 0.19235 0.45103 0.30935 0.79372 0.30935 0.28402 0 0.5097-0.0503 0.65171-0.10034l-0.0334-0.56004c-0.10868 0.0337-0.22568 0.05-0.42637 0.05-0.40936 0-0.55137-0.28402-0.55137-0.78539v-2.1725h1.0531v-0.56004h-1.0531zm8.9166 0.9694-0.78572 2.2645c-0.13368 0.37603-0.25068 0.71039-0.34235 1.0447h-0.025c-0.0837-0.33435-0.19234-0.66871-0.32602-1.0447l-0.79405-2.2645h-0.7854l1.5378 4.0446h0.70172l1.5878-4.0446z" fill="#707172"/>
   </g>
  </g>
 </g>
 <style type="text/css">.st0{clip-path:url(#SVGID_2_);fill:#6884A7;}
	.st1{clip-path:url(#SVGID_2_);fill:#FFFFFF;}</style>
</svg>
