<?xml version="1.0" encoding="UTF-8"?>
<svg width="142.69mm" height="45.557mm" version="1.1" viewBox="0 0 142.69 45.557" xmlns="http://www.w3.org/2000/svg">
 <g transform="translate(-42.049 -137.39)">
  <g transform="matrix(.72889 0 0 .72889 42.049 137.39)" fill="#6884a7" fill-opacity=".37647">
   <path d="m73.471 32.944c-4.6112 0-7.9925-2.3038-7.9925-7.4275v-16.752h3.4338v16.086c0 1.7912 0 5.3275 4.5588 5.3275 4.6612 0 4.6612-3.5362 4.6612-5.3275v-16.086h3.4338v16.752c0 5.1238-3.4338 7.4275-8.095 7.4275"/>
   <path d="m96.936 32.534v-8.9138c0-3.0762 0-4.765-2.2038-4.765-2.5625 0-4.3575 3.4838-4.3575 6.7112v6.9675h-3.1238v-16.394h3.1238v3.5362h0.0525c0.56375-1.3838 1.895-3.895 5.2288-3.895 3.7888 0 4.405 3.3825 4.405 5.38v11.372h-3.125"/>
   <path d="m109.28 32.534h-3.0745v-16.394h3.0745zm0.3075-19.57h-3.6908v-3.4832h3.6908z"/>
   <path d="m121.99 30.535c-2.6138-0.15375-3.4338-3.3288-3.4338-6.1475 0-2.6638 0.97125-6.0962 3.4338-6.1988v-2.2538c-1.9475 0.45875-3.0225 1.8975-3.33 2.715h-0.10375v-2.5112h-3.0725v23.772h3.0725v-9.5812h0.10375c0.35875 0.76875 1.3325 2.1512 3.33 2.5112zm3.38-6.1988c0 3.4325-0.81875 6.1988-3.2275 6.1988h-0.1525v2.3062c0.30625 0.05125 0.66625 0.1025 1.0238 0.1025 3.7412 0 5.7912-3.3812 5.7912-8.8625 0-4.7138-1.6425-8.3-5.5875-8.3-0.45875 0-0.87 0.05-1.2275 0.15375v2.2538h0.1c2.9225 0 3.28 3.6888 3.28 6.1475"/>
   <path d="m138.59 21.059h-3.1262c0-0.71875 0.71875-2.8175 3.1262-2.87v-2.4075c-2.205 0.05-6.3538 1.0762-6.3538 7.7862 0 5.6375 2.4088 8.6088 6.3538 9.2238v-2.9725c-2.3575-1.3312-3.2788-4.3538-3.2788-6.66h3.2788zm0 11.732v-2.9725c0.76875 0.46 1.69 0.71625 2.7662 0.71625 1.435 0 2.4088-0.35625 3.125-0.615v2.4625c-1.3838 0.305-2.305 0.56125-4.0988 0.56125-0.615 0-1.23-0.05125-1.7925-0.1525m3.1238-11.732h-3.1238v2.1h6.25v-0.82c0-3.8425-1.9488-6.5575-5.945-6.5575h-0.305v2.4075h0.15125c2.3588 0 2.9725 1.8462 2.9725 2.87"/>
   <path d="m153.85 18.548v8.7612c0 1.485 0.205 3.2262 2.6112 3.2262 0.5625 0 1.18-0.1025 1.6388-0.25625v2.4075c-0.76625 0.15375-1.6388 0.25625-2.4575 0.25625-3.9462 0-4.9175-1.7412-4.9175-3.9938v-10.401h-2.9225v-2.4088h2.9225v-3.8425l3.125-1.9475v5.79h4.5075v2.4088h-4.5075"/>
   <path d="m165.33 25.566v6.9675h-3.1275v-16.395h3.1275v3.33h0.0525c0.46-1.33 1.8438-3.6875 5.0688-3.6875v3.3825c-2.8138 0-5.1212 1.38-5.1212 6.4025"/>
   <path d="m180.44 30.535c-3.38-0.05125-3.7875-3.5862-3.7875-6.1988s0.4075-6.1475 3.7875-6.1475v-2.4075c-4.9175 0-7.2212 3.33-7.2212 8.555 0 5.175 2.3038 8.6075 7.2212 8.6075zm3.8438-6.1988c0 2.6125-0.46 6.1988-3.7925 6.1988h-0.05125v2.4088h0.0513c4.9212 0 7.225-3.4325 7.225-8.6075 0-5.225-2.3038-8.555-7.225-8.555h-0.0513v2.4075h0.0513c3.3325 0 3.7925 3.4838 3.7925 6.1475"/>
   <path d="m192.63 32.534h3.1261v-23.77h-3.1261z"/>
   <path d="m120.19 48.774h-6.2988v11.476h6.2988v-1.6912c-2.305-0.05125-4.045-1.7938-4.045-3.9975 0-2.2 1.74-4.095 4.045-4.095zm0 7.3775c-0.92125-0.05-1.6388-0.76875-1.6388-1.59 0-0.92 0.7175-1.585 1.6388-1.585zm7.9938-3.5862v1.6388c-0.1025 0-0.15375 0.05125-0.25625 0.05125h-0.40625v-1.69zm0-3.7912h-7.9938v1.6925h0.0538c2.2025 0 3.9938 1.895 3.9938 4.095 0 2.2038-1.7912 3.9975-3.9938 3.9975h-0.0538v1.6912h7.9938v-3.0738l-0.6625-1.385v2.5625h-2.4625v-7.685h3.125zm-7.94 4.2025c0.82 0 1.5875 0.615 1.5875 1.585 0 0.82125-0.7675 1.59-1.5875 1.59h-0.0538v-3.175zm7.94 1.2275c0.46125-0.05125 0.66625-0.35875 0.66625-0.8175 0-0.46375-0.205-0.71875-0.66625-0.82125zm6.9675-5.43v1.895h-2.6125v7.685h2.6125v1.8962h-6.9675v-3.0738l0.5625 1.1775h3.0762l-2-3.1762c0.81875-0.10125 1.4862-0.82 1.4862-1.895 0-1.6912-1.075-2.6138-3.0738-2.6138h-0.0513v-1.895zm5.8412 7.48h0.40955v-0.97387h-0.40955zm0-2.7662h0.40955v-0.92162h-0.40955zm0.41-4.7138v1.895h-2.87v7.685h2.87v1.8962h-6.2512v-1.8962h2.5612v-2.1h-2.4062v-5.585h-0.155v-1.895zm7.3262 0v3.8938l-1.3325-1.9988h-2.3075v7.685h2.41v-2.8688c0-0.3075 0-0.7175-0.1025-1.1275l1.3325 1.9988v3.8938h-7.3262v-1.8962h2.8138v-2.1h-2.8138v-0.97375h1.1788v-1.7925h-1.1788v-0.9225h2.51v-1.8962h-2.51v-1.895zm0 11.476v-3.8938l1.33 1.9975h2.3062v-7.685h-2.4588v2.7175c0 0.305 0.1525 0.71625 0.1525 1.2788l-1.33-1.9975v-3.8938h6.4538v11.476h-6.4538"/>
   <path d="m168.86 50.721v1.5875h-0.82v1.9462h0.82v2.46l-0.82-1.435v2.9712h-1.9462v-7.53zm-3.9962 3.6362c0-0.15375 0-0.30625-0.05-0.46h-3.9962v1.5875h2.045c-0.15 0.81875-0.86875 1.385-1.9462 1.385-1.225 0-1.9938-0.87125-1.9938-2.3075 0-1.435 0.81875-2.305 1.9938-2.305 0.67 0 1.1812 0.3075 1.6412 0.87l1.7438-0.87c-0.77-1.1262-1.8962-1.7412-3.385-1.7412-2.3025 0-4.045 1.6912-4.045 3.945 0 1.075 0.41 2.1 1.1288 2.8688 0.76875 0.76875 1.7412 1.075 2.9162 1.075 2.4625 0 3.9475-1.435 3.9475-4.0475m3.9962 2.3575v-2.46c0.5625-0.1025 0.8175-0.3575 0.8175-0.92125 0-0.66625-0.255-0.92125-0.8175-1.025v-1.5875c0.8175 0 1.485 0.10125 1.9975 0.5125 0.56375 0.41 0.87125 1.0238 0.87125 1.845 0 1.125-0.615 1.8938-1.69 2.1488l2.0475 3.0238h-2.305zm7.6838-6.1988v1.7412c-1.1262 0-1.945 1.025-1.945 2.2525 0 1.2312 0.765 2.205 1.945 2.205v1.7425c-0.87125 0-1.845-0.3075-2.56-0.9225-0.92375-0.77-1.435-1.845-1.435-3.025 0-1.0738 0.40875-2.0488 1.1788-2.8162 0.76625-0.715 1.7925-1.1775 2.8162-1.1775m11.989 4.6612v-4.4562h-2.0512v3.585c0 1.64-0.05 2.4088-1.2775 2.4088-1.0788 0-1.3338-0.56375-1.3338-1.8962v-4.0975h-2.0488v4.0462c0 1.1788 0.05 2.0512 0.665 2.7675 0.51375 0.615 1.4338 0.9225 2.7175 0.9225 2.3538 0 3.3288-0.9725 3.3288-3.28m-11.989 3.28v-1.7425c1.1788 0 1.9975-0.97375 1.9975-2.205 0-1.2275-0.81875-2.2525-1.9975-2.2525v-1.7412c1.0775 0 2.1 0.4625 2.8688 1.1775 0.77 0.7675 1.1775 1.7425 1.1775 2.8162 0 1.0775-0.4075 2.0512-1.1775 2.77-0.76875 0.7675-1.7912 1.1775-2.8688 1.1775m16.342-7.7362v1.64c-0.15375 0-0.25625-0.0525-0.46125-0.0525h-0.41125v1.7938h0.8725v1.6388h-0.8725v2.51h-1.8938v-7.53zm0 5.02v-1.6388c0.56375-0.1025 0.8725-0.30625 0.8725-0.87125 0-0.615-0.30875-0.81875-0.8725-0.87v-1.64c0.71875 0 1.3325 0.05 1.7925 0.3575 0.67 0.4625 1.0775 1.23 1.0775 2.2038 0 0.9725-0.3575 1.7425-1.0775 2.1512-0.51125 0.3075-1.0738 0.3075-1.7925 0.3075"/>
   <path d="m50.362 56.199c0-2.2538-4.355-4.1988-10.966-5.3275 0.10125 0.2575 0.205 0.61375 0.25625 0.87375 1.0762 3.225 3.33 6.1475 6.15 8.145 2.8675-1.025 4.56-2.3088 4.56-3.6912"/>
   <path d="m48.774 34.12c1.025-0.2575 1.9975-0.3075 3.0238-0.36-0.565 1.9988-1.3362 3.9462-2.2562 5.7375-0.46125 0.105-7.2225 1.5388-10.758 9.0188-0.87375-7.5838 5.12-12.964 9.99-14.396"/>
   <path d="m13.832 44.418c-4.61-14.039 3.5375-28.178 18.24-31.509 5.9925-1.3838 12.192-0.71625 17.726 1.5375 0.9225 1.8975 1.6888 3.8938 2.1488 6.045-4.7138-1.895-10.04-2.41-15.215-1.2288-12.705 2.87-19.774 15.062-15.778 27.255 2.3562 7.1212 7.9375 12.705 14.858 15.471-1.4875 0.155-3.075 0.30625-4.6625 0.40875-7.9925-3.225-14.602-9.6812-17.318-17.98"/>
   <path d="m25.87 6.7625c-16.444 3.7388-24.229 20.748-18.852 37.501 0.0525 0.15375 0.10375 0.25625 0.15375 0.40875-3.535-4.4588-7.1712-9.8875-7.1712-18.391 0-14.5 11.782-26.281 26.334-26.281 7.58 0 14.448 3.225 19.21 8.4012-6.1475-2.46-13.014-3.1762-19.674-1.6388"/>
   <path d="m10.452 51.385c3.8925 5.0212 9.27 8.9138 15.265 11.116-13.012-0.05125-23.514-2.87-23.514-6.3525 0-1.8962 3.2262-3.5862 8.2488-4.7638"/>
   <path d="m27.871 48.568c-3.535-10.861 2.765-21.721 14.089-24.335 3.535-0.76875 7.1712-0.6675 10.552 0.1525 0.05375 0.6675 0.10375 1.2812 0.10375 1.8975 0 1.2812-0.10375 2.5088-0.26 3.74-2.0975-0.30875-4.2488-0.20625-6.3488 0.25375-9.2225 2.1525-14.398 11.016-11.478 19.88 1.4862 4.5075 4.7638 8.1962 9.0162 10.45-1.2275 0.3575-3.2275 0.76875-4.355 0.92375-5.2762-2.665-9.425-7.2762-11.32-12.962"/>
  </g>
 </g>
</svg>
