<?xml version="1.0" encoding="UTF-8"?>
<svg width="8.3535mm" height="3.9732mm" version="1.1" viewBox="0 0 8.3535 3.9732" xmlns="http://www.w3.org/2000/svg" xmlns:xlink="http://www.w3.org/1999/xlink">
 <defs>
  <rect id="SVGID_1_" x="425.5" y="241.5" width="108.2" height="76"/>
 </defs>
 <g transform="translate(-14.217 -87.269)">
  <g transform="matrix(.26458 0 0 .26458 -109.79 16.774)">
   <clipPath id="SVGID_2_">
    <use width="100%" height="100%" xlink:href="#SVGID_1_"/>
   </clipPath>
   <path d="m468.7 273.95v-7.5084h31.572v15.017h-31.572zm18.525 4.4726v-1.8049l0.12732 0.1971c0.34567 0.53512 0.93567 0.91835 1.7112 1.1115 0.35923 0.0895 1.0647 0.0951 1.4541 0.0115 1.5763-0.33823 2.692-1.5039 2.8954-3.0252 0.11398-0.85232-0.16045-1.9198-0.64849-2.5225-0.19074-0.23554-0.64791-0.64314-0.95191-0.84868-0.4422-0.29899-1.0001-0.51051-1.5175-0.57539-0.34749-0.0436-0.56096-0.0399-0.93972 0.0164-0.86352 0.12822-1.6022 0.51515-2.0429 1.0702l-0.11826 0.14893v-1.1133h-0.8924v4.5491c0 2.502 9e-3 4.5584 0.0205 4.5696 0.0113 0.0113 0.21899 0.0205 0.46158 0.0205h0.44107zm2.2002-1.323c-0.55976-0.0899-1.0464-0.33388-1.4573-0.73072-0.57208-0.5524-0.78296-1.0655-0.78546-1.9111-1e-3 -0.3541 0.0112-0.47717 0.0687-0.69113 0.14406-0.5359 0.47508-1.0369 0.89929-1.3612 1.0164-0.77691 2.4565-0.76279 3.4045 0.0334 0.87494 0.73483 1.1882 1.9513 0.777 3.0175-0.29299 0.75976-0.97696 1.3577-1.7989 1.5727-0.24282 0.0635-0.89355 0.10493-1.1078 0.0705zm-12.847 0.83682c0.51047-0.10808 1.0332-0.34043 1.4171-0.62985 0.28336-0.21365 0.6494-0.60638 0.84228-0.9037 0.15273-0.23543 0.29472-0.48998 0.29472-0.52838 0-9e-3 -0.22564-0.0166-0.50142-0.0166h-0.50142l-0.11475 0.15048c-0.18294 0.23989-0.57803 0.59969-0.80867 0.73644-0.4676 0.27726-0.96125 0.39241-1.5664 0.36537-1.353-0.0604-2.3901-1.0292-2.5399-2.3726-0.15938-1.4293 0.84165-2.6636 2.337-2.8816 1.0006-0.14589 2.0505 0.32335 2.6023 1.1632l0.0859 0.13078h0.50365c0.35779 0 0.50366-0.0102 0.50366-0.0352 0-0.0817-0.22789-0.49933-0.39464-0.72323-0.59614-0.80052-1.4977-1.308-2.5387-1.429-1.0705-0.12445-2.1954 0.26782-2.987 1.0416-0.53372 0.52172-0.86799 1.1476-1.0064 1.8844-0.0544 0.28935-0.0466 0.91821 0.0152 1.2405 0.29076 1.515 1.508 2.621 3.1398 2.8529 0.26487 0.0376 0.94505 0.0122 1.2176-0.0455zm6.5827 0.0283c1.1242-0.18232 2.1288-0.93129 2.6371-1.9661 0.0742-0.15109 0.13496-0.29303 0.13496-0.31541 0-0.032-0.10098-0.0407-0.47127-0.0407h-0.47127l-0.0548 0.11539c-0.37056 0.77949-1.3717 1.3604-2.3464 1.3614-0.93996 8.9e-4 -1.8886-0.59638-2.3286-1.4664-0.0994-0.19658-0.20514-0.57034-0.20514-0.72525v-0.11601h6.1016l-0.0219-0.34619c-0.0439-0.6951-0.19277-1.2768-0.43612-1.7038-0.78674-1.3806-2.3048-2.0691-3.8281-1.7363-1.3978 0.30538-2.4765 1.4501-2.7074 2.8733-0.0397 0.24446-0.0397 0.90443 0 1.1489 0.0889 0.54774 0.329 1.1113 0.66316 1.5565 0.76823 1.0236 2.0889 1.5625 3.3342 1.3606zm-3.105-4.0685c2.1e-4 -0.0296 0.0402-0.16804 0.0887-0.3076 0.34804-0.99988 1.2868-1.6932 2.3732-1.7526 1.1706-0.064 2.2881 0.73055 2.6423 1.8788 0.0358 0.11602 0.0651 0.21642 0.0651 0.22309 0 7e-3 -1.1632 0.0121-2.5848 0.0121-2.4414 0-2.5848-3e-3 -2.5844-0.0539zm14.421 3.9607c0.33364-0.0853 0.60003-0.22772 0.83547-0.44657 0.2375-0.22076 0.37769-0.43792 0.48892-0.7574 0.10827-0.31096 0.13321-0.9238 0.0563-1.3846-0.0678-0.40644-0.22375-0.94887-0.38244-1.3302-0.28572-0.68651-0.33527-0.97338-0.21072-1.2199 0.0853-0.16893 0.22972-0.26866 0.42682-0.29481l0.15015-0.0199v-1.4474l-0.22692 0.0192c-0.50668 0.0428-0.96729 0.26233-1.312 0.62522-0.3908 0.41141-0.57428 0.91903-0.54339 1.5033 0.0199 0.37648 0.094 0.6605 0.32991 1.2655 0.24337 0.62404 0.33674 0.99216 0.35806 1.4116 0.0218 0.4289-0.0169 0.54376-0.21246 0.6299-0.0725 0.0319-0.21837 0.0678-0.32414 0.0796l-0.19233 0.0215v1.4468l0.26355-0.0214c0.14495-0.0118 0.36778-0.048 0.49518-0.0806zm2.2811-7.5918 9e-3 -0.31541h-20.192l0.57885-0.51102c0.31837-0.28105 0.61316-0.54415 0.65508-0.58467l0.0762-0.0736h-1.0915l-0.48443 0.43994c-0.26644 0.24196-0.5016 0.4504-0.52258 0.46319-0.0245 0.0149-0.2304-0.1425-0.57626-0.44065l-0.53812-0.46391-1.083 0.016 1.2948 1.1386-2.675 0.016v0.30227c0 0.16625 9e-3 0.31152 0.0205 0.32282 0.0113 0.0113 5.533 0.0171 12.27 0.0128l12.25-8e-3z" fill="#6884a7" fill-opacity=".37647" stroke-width=".030772"/>
  </g>
 </g>
 <style type="text/css">.st0{clip-path:url(#SVGID_2_);fill:#6884A7;}
	.st1{clip-path:url(#SVGID_2_);fill:#FFFFFF;}</style>
</svg>
