<?xml version="1.0" encoding="UTF-8"?>
<svg width="28.628mm" height="20.108mm" version="1.1" viewBox="0 0 28.628 20.108" xmlns="http://www.w3.org/2000/svg" xmlns:xlink="http://www.w3.org/1999/xlink">
 <defs>
  <rect id="SVGID_1_" x="425.5" y="241.5" width="108.2" height="76"/>
 </defs>
 <g transform="translate(-2.7883 -80.671)">
  <g transform="matrix(.26458 0 0 .26458 -109.79 16.774)">
   <clipPath id="SVGID_2_">
    <use width="100%" height="100%" xlink:href="#SVGID_1_"/>
   </clipPath>
   <rect class="st0" transform="matrix(1 0 0 -1 0 534)" x="454" y="241.5" width="51" height="51" clip-path="url(#SVGID_2_)" fill="#6884a7" fill-opacity=".37647"/>
   <polygon class="st1" points="470 257.5 495.4 257.5 495.4 251.2 463.7 251.2 463.7 282.9 495.4 282.9 495.4 276.5 470 276.5" clip-path="url(#SVGID_2_)" fill="#fff"/>
   <rect class="st1" x="476.4" y="263.8" width="18.7" height="6.3" clip-path="url(#SVGID_2_)" fill="#fff"/>
   <path class="st0" d="m528.1 315.2 5.6-9.5h-8.4v1.9h4.7l-5.6 9.5h9v-1.9zm-5.4-7.6v-1.9h-6.4v11.5h6.4v-1.9h-4.1v-3.1h4v-1.9h-4v-2.5h4.1zm-15.1-5.4 2.9 2.4 3-2.4-1.1-1-1.9 1.5-1.9-1.5zm5.9 3.9c-1-0.5-1.8-0.7-2.8-0.7-3.4 0-6.1 2.7-6.1 6.1 0 3.3 2.7 5.9 6.1 5.9 1 0 1.8-0.2 2.8-0.7v-2.6c-0.9 0.9-1.7 1.3-2.8 1.3-2.2 0-3.8-1.7-3.8-3.9 0-2.3 1.6-4 3.8-4 1.1 0 1.9 0.4 2.8 1.3zm-18.9 6.8h-3.3l1.7-4.1zm0.7 1.9 1 2.4h2.4l-4.8-11.7h-1.7l-5 11.7h2.4l1-2.4zm-20.6 2.4h2.2v-7.8l7 8h1.6v-11.7h-2.2v7.7l-7-8h-1.6zm-3.2-11.5h-2.2v11.5h2.2zm-9.7 5.3v-3.3h0.8c0.8 0 1.3 0.1 1.7 0.4s0.6 0.8 0.6 1.3c0 1.1-0.7 1.7-2.1 1.7h-1zm0 1.9h1.4c1.4 0 2.3-0.3 2.9-1 0.6-0.6 0.9-1.6 0.9-2.6 0-1.1-0.4-2.1-1.2-2.8-0.7-0.6-1.5-0.9-3-0.9h-3.4v11.5h2.2v-4.2zm-12.3-7.2h-2.2v7c0 1.3 0.3 2.3 0.8 3.1 0.8 1 2.2 1.7 3.8 1.7s3-0.6 3.8-1.7c0.6-0.8 0.8-1.7 0.8-3.1v-7h-2.2v6.6c0 1.2-0.1 1.6-0.4 2.1-0.4 0.7-1.2 1.1-2 1.1-0.9 0-1.6-0.4-2-1.1-0.3-0.5-0.4-0.9-0.4-2.1zm-11.3 4.8v-4.9h-2.2v11.5h2.2v-4.9l0.3-0.3 4.1 5.2h2.9l-5.1-6.2 4.9-5.3h-2.8zm-5.2-3.7c-1-0.8-2.1-1.3-3.4-1.3-2.1 0-3.6 1.4-3.6 3.3 0 1.5 0.8 2.4 2.8 3.1 0.9 0.3 1.4 0.5 1.6 0.7 0.4 0.3 0.6 0.7 0.6 1.2 0 0.9-0.8 1.6-1.8 1.6s-1.9-0.6-2.4-1.5l-1.4 1.4c1 1.5 2.3 2.2 3.9 2.2 2.4 0 4-1.5 4-3.8 0-1-0.3-1.8-1-2.4-0.5-0.4-1-0.7-2.3-1.2s-1.7-0.8-1.7-1.4c0-0.7 0.7-1.3 1.6-1.3 0.7 0 1.3 0.3 1.9 0.9z" clip-path="url(#SVGID_2_)" fill="#6884a7" fill-opacity=".37647"/>
  </g>
 </g>
 <style type="text/css">.st0{clip-path:url(#SVGID_2_);fill:#6884A7;}
	.st1{clip-path:url(#SVGID_2_);fill:#FFFFFF;}</style>
</svg>
