<?xml version="1.0" encoding="UTF-8"?>
<svg width="26.961mm" height="18.071mm" version="1.1" viewBox="0 0 26.961 18.071" xmlns="http://www.w3.org/2000/svg">
 <g transform="translate(-35.931 -77.064)" fill="#274897" stroke-width=".26458">
  <rect class="st0" x="44.768" y="94.685" width="18.124" height=".44979"/>
  <rect class="st0" x="35.931" y="90.028" width="11.562" height=".42333"/>
  <g clip-rule="evenodd" fill-rule="evenodd">
   <path class="st1" d="m45.8 85.133-0.79375-1.1377c-0.02646-0.05292-0.07938-0.07937-0.13229-0.07937h-1.2435c-0.07938 0-0.15875 0.07937-0.15875 0.15875v1.1377c0 0.07937 0.07937 0.15875 0.15875 0.15875h2.0637c0.10583 0.02646 0.18521-0.10583 0.10583-0.23812m1.6933 3.1221v0.50271c0 0.07937-0.07937 0.15875-0.15875 0.15875h-1.3229c-0.10583-0.66146-0.66146-1.1642-1.3494-1.1642-0.68792 0-1.2435 0.50271-1.3494 1.1642h-2.6988c-0.05292-0.3175-0.21167-0.60854-0.44979-0.82021h2.54v-4.7096c0-0.18521 0.15875-0.3175 0.3175-0.3175h1.561c0.44979 0 0.84667 0.21167 1.0848 0.58208l1.0054 1.4817c0.15875 0.21167 0.23812 0.47625 0.23812 0.74083v2.249h0.39688c0.10583-0.02646 0.18521 0.02646 0.18521 0.13229zm-2.3283 0.84667c0-0.29104-0.23812-0.50271-0.50271-0.50271-0.29104 0-0.50271 0.23812-0.50271 0.50271 0 0.29104 0.23812 0.50271 0.50271 0.50271 0.26458 0.02646 0.50271-0.21167 0.50271-0.50271zm0.50271 0c0 0.55562-0.44979 1.0319-1.0319 1.0319-0.55562 0-1.0319-0.44979-1.0319-1.0319 0-0.58208 0.44979-1.0319 1.0319-1.0319 0.58208 0.02646 1.0319 0.47625 1.0319 1.0319zm-7.276-1.0054h-2.3019c-0.07937 0-0.15875 0.07937-0.15875 0.15875v0.50271c0 0.07937 0.07938 0.15875 0.15875 0.15875h1.8521c0.05292-0.34396 0.21167-0.635 0.44979-0.82021zm1.4023 1.0054c0-0.29104-0.23812-0.50271-0.50271-0.50271-0.29104 0-0.50271 0.23812-0.50271 0.50271 0 0.29104 0.23812 0.50271 0.50271 0.50271 0.26458 0.02646 0.50271-0.21167 0.50271-0.50271zm0.50271 0c0 0.55562-0.44979 1.0319-1.0319 1.0319-0.58208 0-1.0319-0.44979-1.0319-1.0319 0-0.58208 0.44979-1.0319 1.0319-1.0319 0.58208 0 1.0319 0.47625 1.0319 1.0319zm-4.3656-1.6669v-4.9212c0-0.26458 0.21167-0.50271 0.50271-0.50271h5.3181c0.26458 0 0.50271 0.21167 0.50271 0.50271v4.9212c0 0.07937-0.07937 0.15875-0.15875 0.15875h-5.9796c-0.10583 0-0.18521-0.07938-0.18521-0.15875z"/>
   <path class="st1" d="m57.494 78.916c0 1.0319 0.82021 1.8521 1.8521 1.8521s1.8521-0.82021 1.8521-1.8521-0.82021-1.8521-1.8521-1.8521-1.8521 0.82021-1.8521 1.8521"/>
   <path class="st1" d="m46.699 92.859h0.47625c-0.15875 0.29104-0.26458 0.60854-0.21167 0.9525h-0.23812c-0.26458 0-0.47625-0.21167-0.47625-0.47625-0.02646-0.26458 0.18521-0.47625 0.44979-0.47625"/>
   <path class="st1" d="m49.874 92.859h1.5346c-0.15875 0.29104-0.26458 0.60854-0.21167 0.9525h-1.0848c0-0.34396-0.07937-0.66146-0.23812-0.9525"/>
   <path class="st1" d="m53.843 85.715c0-0.26458 0.21167-0.47625 0.47625-0.47625h0.74083c-0.05292 0.21167-0.07937 0.44979 0 0.68792 0.02646 0.10583 0.05292 0.18521 0.10583 0.29104h-0.34396v7.1438c0 0.26458-0.21167 0.47625-0.47625 0.47625h-0.02646c0.05292-0.47625-0.13229-0.92604-0.44979-1.27v-6.8527z"/>
   <path class="st1" d="m48.552 90.24h4.2333c0.18521 0 0.34396 0.15875 0.34396 0.34396s-0.15875 0.34396-0.34396 0.34396h-4.2333c-0.18521 0-0.34396-0.15875-0.34396-0.34396s0.15875-0.34396 0.34396-0.34396m0-1.0848h4.2333c0.18521 0 0.34396 0.15875 0.34396 0.34396 0 0.18521-0.15875 0.34396-0.34396 0.34396h-4.2333c-0.18521 0-0.34396-0.15875-0.34396-0.34396 0-0.18521 0.15875-0.34396 0.34396-0.34396zm0-1.0583h4.2333c0.18521 0 0.34396 0.15875 0.34396 0.34396s-0.15875 0.34396-0.34396 0.34396h-4.2333c-0.18521 0-0.34396-0.15875-0.34396-0.34396 0-0.21167 0.15875-0.34396 0.34396-0.34396zm0-1.0848h4.2333c0.18521 0 0.34396 0.15875 0.34396 0.34396 0 0.18521-0.15875 0.34396-0.34396 0.34396h-4.2333c-0.18521 0-0.34396-0.15875-0.34396-0.34396 0-0.18521 0.15875-0.34396 0.34396-0.34396zm0 4.2862h4.2333c0.18521 0 0.34396 0.15875 0.34396 0.34396 0 0.18521-0.15875 0.34396-0.34396 0.34396h-4.2333c-0.18521 0-0.34396-0.15875-0.34396-0.34396 0-0.18521 0.15875-0.34396 0.34396-0.34396z"/>
   <path class="st1" d="m56.172 84.948c0.23812-0.05292 2.0108-0.50271 2.249-0.55562l0.84667-2.4077-1.2965 1.8521-0.13229-1.4552c-0.05292-0.55562 0.37042-1.0319 0.92604-1.0848l1.7727-0.15875c0.55562-0.05292 1.0319 0.37042 1.0848 0.92604l0.39688 5.1329-0.47625 3.0956 1.2965 3.4131c0.15875 0.42333-0.05292 0.87312-0.47625 1.0319-0.42333 0.15875-0.87312-0.05292-1.0319-0.47625l-1.3494-3.6248c-0.05292-0.13229-0.05292-0.26458-0.05292-0.42333l0.23812-2.9104-0.21167 0.02646-1.2965 2.8575-0.89958 3.9423c-0.10583 0.42333-0.52917 0.71438-0.97896 0.60854-0.42333-0.10583-0.71438-0.52917-0.60854-0.97896l0.9525-3.9952c0-0.05292 0.02646-0.10583 0.05292-0.15875l1.1112-2.4606-0.05292-0.66146 1.0319-0.26458c0.58208-0.13229 0.92604-0.66146 0.9525-0.97896l0.3175-2.7252-0.9525 2.6723c-0.07937 0.21167-0.23812 0.37042-0.47625 0.42333l-2.6194 0.66146c-0.34396 0.07937-0.68792-0.10583-0.79375-0.42333-0.13229-0.39688 0.07938-0.82021 0.47625-0.89958"/>
   <path class="st1" d="m52.732 94.076c0.21167 0 0.39688-0.18521 0.39688-0.39688s-0.18521-0.39688-0.39688-0.39688-0.39688 0.18521-0.39688 0.39688 0.18521 0.39688 0.39688 0.39688m-0.66146-1.2435c0.18521-0.13229 0.39688-0.21167 0.66146-0.21167 0.58208 0 1.0848 0.47625 1.0848 1.0848 0 0.60854-0.47625 1.0848-1.0848 1.0848-0.58208 0-1.0848-0.47625-1.0848-1.0848 0.02646-0.37042 0.18521-0.68792 0.42333-0.87312z"/>
   <path class="st1" d="m48.525 94.076c0.21167 0 0.39688-0.18521 0.39688-0.39688s-0.18521-0.39688-0.39688-0.39688-0.39688 0.18521-0.39688 0.39688c-0.02646 0.21167 0.15875 0.39688 0.39688 0.39688m0-1.4817c0.58208 0 1.0848 0.47625 1.0848 1.0848s-0.47625 1.0848-1.0848 1.0848c-0.58208 0-1.0848-0.47625-1.0848-1.0848s0.47625-1.0848 1.0848-1.0848z"/>
  </g>
 </g>
</svg>
