<?xml version="1.0" encoding="UTF-8"?>
<svg width="27.04mm" height="18.098mm" version="1.1" viewBox="0 0 27.04 18.098" xmlns="http://www.w3.org/2000/svg">
 <g transform="translate(-67.793 -109)">
  <path class="st1" d="m75.228 120.51v-1.7198c0-0.15875-0.13229-0.29104-0.29104-0.29104s-0.29104 0.13229-0.29104 0.29104v0.50271l-0.10583-0.10583c-0.10583-0.10584-0.29104-0.10584-0.39688 0-0.10583 0.10583-0.10583 0.29104 0 0.39687l0.50271 0.50271v0.44979h0.58208zm-3.7042-1.5081v-0.92604l-1.1906-1.1906c-0.13229-0.13229-0.13229-0.3175 0-0.44979 0.13229-0.13229 0.3175-0.13229 0.44979 0l0.74083 0.74083v-2.3283c0-0.15875 0.13229-0.3175 0.3175-0.3175 0.15875 0 0.3175 0.13229 0.3175 0.3175v1.0054l0.42333-0.42334c0.13229-0.13229 0.3175-0.13229 0.44979 0 0.13229 0.13229 0.13229 0.3175 0 0.44979l-0.87312 0.87313v2.249zm7.1967 0.29104v-3.6777l0.68792-0.68792c0.13229-0.13229 0.13229-0.3175 0-0.44979s-0.3175-0.13229-0.44979 0l-0.23812 0.23813v-0.87313c0-0.15875-0.13229-0.3175-0.3175-0.3175-0.15875 0-0.3175 0.13229-0.3175 0.3175v1.9315l-0.50271-0.50271c-0.13229-0.13229-0.3175-0.13229-0.44979 0-0.13229 0.13229-0.13229 0.3175 0 0.44979l0.9525 0.9525v2.6194zm-6.5881 2.6988v-2.3548c0.29104-0.0265 0.55562-0.0794 0.82021-0.15875 0.13229 0.84666 0.82021 1.5346 1.6933 1.6404v0.84667h-2.5135zm6.5881 0v-2.0638h2.0108c0.26458 0 0.47625-0.10583 0.635-0.3175s0.21167-0.44979 0.13229-0.68792l-2.2225-8.2815c-0.10583-0.37042-0.39688-0.60854-0.76729-0.60854-0.37042 0-0.68792 0.23812-0.76729 0.60854l-1.8256 6.7998c-0.13229-0.0794-0.29104-0.1323-0.44979-0.18521 0.21167-0.50271 0.3175-1.0319 0.3175-1.561 0-2.196-1.7727-3.9688-3.9688-3.9688-2.196 0-3.9687 1.7727-3.9687 3.9688 0 2.0902 1.614 3.81 3.6512 3.9688v2.3548h-3.7042v0.42333h13.838v-0.44979zm11.086-11.139c0 1.0319 0.82021 1.8521 1.8521 1.8521s1.8521-0.82021 1.8521-1.8521c0-1.0319-0.82021-1.8521-1.8521-1.8521s-1.8521 0.84667-1.8521 1.8521zm3.6248 15.796c-0.10583-0.0794-0.21167-0.21167-0.26458-0.34396l-1.5346-3.7042c-0.05292-0.13229-0.07937-0.29104-0.05292-0.42333l0.26458-2.1167h-0.66146l-0.23812 1.7992 0.84667 3.9423c0.07937 0.3175-0.05292 0.66146-0.3175 0.84667zm-13.494-0.60855c0.39688 0 0.71438-0.3175 0.71438-0.71437 0-0.39688-0.3175-0.71438-0.71438-0.71438s-0.71438 0.3175-0.71438 0.71438c0.02646 0.39687 0.34396 0.71437 0.71438 0.71437zm5.424 0c0.39688 0 0.71438-0.3175 0.71438-0.71437 0-0.39688-0.3175-0.71438-0.71438-0.71438s-0.71438 0.3175-0.71438 0.71438c0.02646 0.39687 0.34396 0.71437 0.71438 0.71437zm-0.66146 0.60855c-0.37042-0.21167-0.66146-0.55563-0.76729-0.97896h-2.5135c-0.10583 0.42333-0.37042 0.79375-0.76729 0.97896zm-6.0854-2.0108v-0.34396c0-0.15875 0.07938-0.29104 0.23812-0.34395 5.715-2.1431 5.3446-2.0108 5.4504-2.0108l2.196-4.1275c0.05292 0.29104 0.21167 0.55563 0.44979 0.74084l-1.9579 3.6777 0.60854 0.29105 1.9844-3.7042c0.21167 0.0265 0.3175 0 0.89958-0.10583l-2.2225 4.1804c0.02646 0.0529 0-0.0529 0.37042 1.561 0.15875 0.23813 0.26458 0.52917 0.26458 0.84667 0 0.58208-0.3175 1.0848-0.79375 1.3229h4.3921c-0.15875-0.10584-0.26458-0.29104-0.3175-0.50271l-0.87312-4.0746c-0.02646-0.10584-0.02646-0.18521 0-0.29105l0.42333-3.2014 1.1377-0.18521c0.58208-0.10584 0.92604-0.55563 0.9525-0.82021l0.42333-2.0902-0.89958 2.0108c-0.10583 0.21167-0.29104 0.37042-0.55562 0.42334-0.89958 0.13229-1.9844 0.3175-2.884 0.47625-0.39688 0.0529-0.76729-0.21167-0.84667-0.60854-0.05292-0.39688 0.21167-0.7673 0.60854-0.84667l2.5135-0.39688 0.82021-1.8256-1.2435 1.3758v-1.8521c0-0.55563 0.44979-1.0319 1.0319-1.0319h1.8256c0.55562 0 1.0319 0.4498 1.0319 1.0319 0 0 0.05292 4.9212 0.02646 5.08-0.07937 0.58208-0.37042 2.884-0.37042 2.884l1.4552 3.4925c0.15875 0.37041 0.02646 0.76729-0.26458 0.97896h0.34396v0.44979h-18.124v-0.44979h2.6194c-0.47625-0.23813-0.79375-0.74084-0.79375-1.3229-0.07937-0.23813-0.02646-0.47625 0.07937-0.68792zm-3.3867-2.6458v-0.84667c0.71438-0.10583 1.2965-0.55562 1.561-1.1906h1.3229v2.0638h-2.884z" clip-rule="evenodd" fill="#274897" fill-rule="evenodd" stroke-width=".26458"/>
 </g>
</svg>
