<?xml version="1.0" encoding="UTF-8"?>
<svg width="26.987mm" height="18.071mm" version="1.1" viewBox="0 0 26.987 18.071" xmlns="http://www.w3.org/2000/svg">
 <g transform="translate(-32.958 -116.19)" fill="#274897">
  <rect class="st0" x="41.821" y="133.81" width="18.124" height=".44979" stroke-width=".26458"/>
  <path class="st0" d="m32.984 129.6h13.335c-0.23812-0.10583-0.44979-0.26458-0.635-0.42333h-12.7z" stroke-width=".26458"/>
  <g clip-rule="evenodd" fill-rule="evenodd">
   <g stroke-width=".26458">
    <path class="st1" d="m50.738 118.04c0 1.0319 0.82021 1.8521 1.8521 1.8521 1.0319 0 1.8521-0.8202 1.8521-1.8521 0-1.0319-0.82021-1.8521-1.8521-1.8521-1.0319 0-1.8521 0.82021-1.8521 1.8521"/>
    <path class="st1" d="m48.357 121.45 0.47625 1.0583-0.10583-0.0265c-0.34396-0.13229-0.55562-0.50271-0.42333-0.87313 0-0.0529 0.02646-0.10583 0.05292-0.15875"/>
    <path class="st1" d="m56.559 131.38-1.0319-1.7992c-0.05292-0.0794-0.07937-0.1852-0.10583-0.29104l-0.39688-2.884-0.55562 0.1323-0.79375 1.7992c-0.635-1.4023-0.84667-1.8785-1.1642-2.6458 0.07938 0 0.05292 0 0.34396-0.0265 0.635-0.0794 1.0054-0.55563 1.0848-0.84667l0.68792-2.6988c-1.4023 2.7252-1.3229 2.54-1.3494 2.5929-0.10583 0.18521-0.29104 0.29104-0.50271 0.3175 0 0-2.6988 0.29104-2.6988 0.29104-0.37042 0.0529-0.71438-0.23812-0.74083-0.60854-0.05292-0.37042 0.23812-0.71438 0.60854-0.74083l2.3283-0.26459 1.1906-2.3019c-0.635 0.71437-1.4552 1.614-1.5081 1.6669l-0.58208 0.0529-0.635-1.4288 1.0054 0.34396-0.05292-0.21167c-0.13229-0.55562 0.21167-1.0848 0.76729-1.2171 0 0 1.1377-0.23812 1.6404-0.37042 0.44979-0.13229 1.1906 0.0529 1.3494 0.74084 1.1906 5.2388-1.3494-5.9531 1.1642 5.08l0.39688 2.884 2.2754 3.9158c0.21166 0.37042 0.07938 0.87312-0.29104 1.0848-0.37042 0.21167-0.87312 0.0794-1.0848-0.29104l-0.68792-1.1906c0-0.0529 0.02646-0.13229 0.02646-0.1852-0.05292-0.42334-0.3175-0.79375-0.68792-0.89959"/>
    <path class="st1" d="m51.664 128.91 1.0583 2.4077h-0.39688c-0.34396 0-0.635 0.18521-0.79375 0.4498 0.10583-2.8575 0.13229-2.8575 0.13229-2.8575"/>
    <path class="st1" d="m49.759 131.75c0.23812-0.0794 0.47625 0.0529 0.55562 0.29104 0 0.0265 0 0.0529 0.02646 0.0529 0.21167-0.0529 0.42333 0.0529 0.47625 0.23812 0.05292 0.15875-0.02646 0.34396-0.15875 0.42334 0.13229 0.23812 0.37042 0.42333 0.52917 0.55562 0.02646 0.0265 0.05292 0.0794 0.02646 0.10584-0.02646 0.0529-0.05292 0.0794-0.10583 0.0529-0.66146-0.0265-1.0583-0.23813-1.0583-0.23813-0.18521 0-0.37042-0.13229-0.42333-0.3175-0.05292-0.13229-0.02646-0.29104 0.05292-0.39687-0.10583-0.0529-0.18521-0.13229-0.21167-0.26459-0.07938-0.1852 0.05292-0.42333 0.29104-0.5027"/>
    <path class="st1" d="m48.542 120.32c-0.07938-0.21167 0-0.42334 0.21167-0.52917 0.21167-0.0794 0.42333 0 0.52917 0.21167l1.4288 3.2279-0.82021 0.0794z"/>
    <path class="st1" d="m54.521 131.8h1.7462c0.26458 0 0.44979 0.21167 0.44979 0.4498 0 0.1852-0.10583 0.3175-0.23812 0.39687l0.34396 1.0848c0.05292 0.13229-0.05292 0.26459-0.18521 0.26459h-3.519v-0.87313l-0.26458 0.89958h-0.89958c-0.13229 0-0.23812-0.13229-0.18521-0.26458l0.34396-1.1112c-0.13229-0.0794-0.21167-0.23812-0.21167-0.39687 0-0.26459 0.21167-0.4498 0.44979-0.4498h1.3229c-0.05292-0.10583-2.54-5.715-2.6458-5.9531l0.82021-0.0794c0.07937 0.18521 2.5665 5.7944 2.6723 6.0325"/>
    <path class="st1" d="m48.277 132.8c0-0.13229 0.05292-0.21167 0.10583-0.29104-0.07938-0.0529-0.10583-0.13229-0.10583-0.23813 0-0.1852 0.13229-0.34395 0.3175-0.34395 0.18521 0 0.34396 0.13229 0.34396 0.3175v0.0529c0.15875 0 0.29104 0.10583 0.3175 0.26458 0 0.13229-0.07938 0.23812-0.18521 0.29104 0.05292 0.18521 0.18521 0.37042 0.29104 0.50271 0.02646 0.0265 0.02646 0.0529 0 0.0794s-0.05292 0.0529-0.07937 0.0265c-0.47625-0.15875-0.74083-0.37042-0.74083-0.37042-0.15875 0-0.26458-0.13229-0.26458-0.29104"/>
    <path class="st1" d="m47.563 129.39c-1.2435 0-2.2754-1.0054-2.2754-2.2754 0-1.2435 1.0054-2.2754 2.2754-2.2754 0.18521 0 0.34396 0.15875 0.34396 0.34396s-0.15875 0.34396-0.34396 0.34396c-0.87312 0-1.561 0.68792-1.561 1.561 0 0.87313 0.68792 1.561 1.561 1.561 0.18521 0 0.34396 0.15875 0.34396 0.34396s-0.15875 0.39688-0.34396 0.39688"/>
    <rect class="st1" x="44.308" y="126.77" width="1.6669" height=".71438"/>
    <path class="st1" d="m42.112 124.89h-1.561c-0.10583 0-0.21167-0.10583-0.21167-0.21167v-1.27c0-0.10583 0.10583-0.21166 0.21167-0.21166h0.68792c0.07937 0 0.15875 0.0529 0.21167 0.10583 0 0 0 0.0265 0.02646 0.0265l0.79375 1.2171c0.05292 0.0794 0.05292 0.15875 0 0.21167 0 0.0794-0.07938 0.13229-0.15875 0.13229m-6.0854 3.1485c0-0.37041 0.3175-0.68791 0.68792-0.68791 0.37042 0 0.68792 0.3175 0.68792 0.68791 0 0.37042-0.29104 0.68792-0.68792 0.68792-0.39688-0.0265-0.68792-0.3175-0.68792-0.68792zm5.8473 0c0-0.37041 0.3175-0.68791 0.68792-0.68791 0.37042 0 0.68792 0.3175 0.68792 0.68791 0 0.37042-0.3175 0.68792-0.68792 0.68792-0.39688-0.0265-0.68792-0.3175-0.68792-0.68792zm-7.4612-1.0848v0.9525c0 0.29104 0.23812 0.50271 0.50271 0.50271h0.50271c0.15875 0.55562 0.68792 0.97896 1.2965 0.97896 0.60854 0 1.1377-0.42334 1.2965-0.97896h3.2544c0.15875 0.55562 0.68792 0.97896 1.2965 0.97896 0.60854 0 1.1377-0.42334 1.2965-0.97896h0.60854c0.29104 0 0.50271-0.23813 0.50271-0.50271v-0.635c0-0.26458-0.21167-0.47625-0.44979-0.50271v-1.27c0-0.47625-0.39688-0.79375-0.87313-0.87312l-0.60854-0.10584-1.0319-1.561c-0.02646-0.0265-0.02646-0.0529-0.05292-0.0529-0.15875-0.21166-0.42333-0.37041-0.71438-0.37041h-1.2435c-0.15875 0-0.29104 0.13229-0.29104 0.29104v2.3283c0 0.71438-0.58208 1.2965-1.2965 1.2965h-3.6512c-0.10583 0.0265-0.34396 0.13229-0.34396 0.50271z"/>
    <path class="st1" d="m33.752 121.16h4.736c0.39688 0 0.74083 0.34396 0.74083 0.7673v3.2279c0 0.42334-0.34396 0.76729-0.74083 0.76729h-4.3921l0.02646-0.76729-1.1112-3.2279c-0.10583-0.26459 0-0.7673 0.74083-0.7673"/>
   </g>
   <polygon class="st1" transform="matrix(.26458 0 0 .26458 -12.551 31.257)" points="172.1 356.9 172.1 366.9 173.9 366.9 177.5 356.9"/>
   <g stroke-width=".26458">
    <path class="st1" d="m38.276 125.71h-5.2917v-0.55563c0-0.23812 0.18521-0.42333 0.42333-0.42333h4.8683z"/>
    <path class="st1" d="m32.984 128.28h0.87312c0.23812 0 0.42333 0.1852 0.42333 0.42333h-1.3229v-0.42333z"/>
    <path class="st1" d="m51.002 129.42c-0.07938-0.26458-0.29104-0.44979-0.55562-0.44979 0.02646-0.50271-0.34396-0.92604-0.82021-0.92604-0.34396 0-0.66146 0.23813-0.76729 0.58208-0.44979-0.0529-0.79375 0.39688-0.71438 0.87313 0 0.0529 0.05292 0.10583 0.13229 0.10583h2.5929c0.10583 0 0.15875-0.0794 0.13229-0.18521"/>
    <path class="st1" d="m48.674 127.94c-0.02646-0.23813-0.23812-0.42334-0.47625-0.39688h-0.05292c-0.02646-0.21166-0.18521-0.37041-0.39688-0.34396-0.15875 0-0.3175 0.1323-0.34396 0.29105-0.26458-0.0529-0.52917-0.18521-0.71438-0.29105-0.02646-0.0265-0.07937-0.0265-0.10583 0-0.02646 0.0265-0.02646 0.0265-0.02646 0.0529v0.0529c0.07937 0.50271 0.52917 0.87313 1.0319 0.87313 0.21167 0 0.42333 0.0794 0.58208 0.21167h0.10583c0.21167 0 0.39688-0.21167 0.39688-0.4498"/>
    <path class="st1" d="m48.965 127.57c0.44979 0 0.82021 0.37042 0.82021 0.82021s-0.37042 0.82021-0.82021 0.82021-0.82021-0.37042-0.82021-0.82021 0.37042-0.82021 0.82021-0.82021"/>
    <path class="st1" d="m40.684 121.85c0.18521 0 0.3175 0.13229 0.3175 0.3175v0.44979h-0.635v-0.44979c0-0.18521 0.13229-0.3175 0.3175-0.3175"/>
   </g>
  </g>
 </g>
</svg>
