<?xml version="1.0" encoding="UTF-8"?>
<svg width="26.961mm" height="18.097mm" version="1.1" viewBox="0 0 26.961 18.097" xmlns="http://www.w3.org/2000/svg">
 <g transform="translate(-36.412 -95.939)" fill="#274897" stroke-width=".26458">
  <rect class="st0" x="45.249" y="113.59" width="18.124" height=".44979"/>
  <path class="st0" d="m40.011 105.89h1.8256v1.8256h-1.8256zm-0.55562-2.9633v-0.60854h-1.2965v1.2171l-1.6933 0.76729v0.97896l0.74083-0.34396v3.9688h-0.79375v0.42334h13.838v-0.39688h-5.5827v-3.9688l0.74083 0.34396v-0.97896l-2.4606-1.1377-0.34396 1.1112 1.0054-0.21166-0.52917 1.9844h-0.05292l0.13229-1.4817-1.1377 0.1852 0.37042-1.8521-1.4552-0.66146z"/>
  <path class="st1" d="m48.715 98.612c-0.07937 0-0.13229 0-0.15875-0.07937l-0.02646-0.18521c0-0.07937 0.05292-0.10583 0.10583-0.15875l0.21167-0.10583c0.05292-0.02646 0.07937-0.07937 0.07937-0.15875-0.07937-1.3229 0.87312-1.9844 1.8521-1.9844 0.82021 0 1.6404 0.44979 1.9579 1.3758 0 0.02646 0.02646 0.02646 0.05292 0.02646 0.05292 0 0.07938 0.02646 0.07938 0.07937l0.07938 0.39688c0 0.05292-0.02646 0.10583-0.07938 0.10583-1.4023 0.23812-2.7781 0.44979-4.154 0.68792m3.9688-0.3175c-1.1377 0.18521-2.2754 0.37042-3.4131 0.55562 0.07937 0.87312 0.82021 1.5875 1.7198 1.5875 0.9525 0 1.7462-0.76729 1.7462-1.7462 0-0.15875-0.02646-0.29104-0.05292-0.39688zm-5.5827 6.35v-1.0319c-0.21167-0.0794-0.34396-0.29104-0.34396-0.52917l0.02646-0.76729c0-0.13229 0.10583-0.18521 0.23812-0.18521h0.10583v-0.68792l-0.37042-0.58208v-0.39687l0.37042-0.635h0.13229v0.76729c0 0.0529 0.05292 0.10583 0.10583 0.10583h0.55562c0.05292 0 0.10583-0.0529 0.10583-0.10583v-0.76729h0.13229l0.37042 0.635v0.42333l-0.37042 0.60854v1.0054l2.0638 0.55562 0.76729-1.27c0 0.26459 0.07938 0.55563 0.21167 0.79375l0.52917 1.0319-0.52917 0.66146c-0.18521 0.23812-0.50271 0.42333-0.84667 0.3175l-2.196-0.60855v0.66146l0.37042 0.60854v0.42334l-0.37042 0.635h-0.13229v-0.76729c0-0.0529-0.05292-0.10584-0.10583-0.10584h-0.55562c-0.05292 0-0.10583 0.0529-0.10583 0.10584v0.76729h-0.13229l-0.37042-0.635v-0.42334zm11.298 0.1323-2.0638-1.6933c-0.05292-0.0529-0.13229-0.10583-0.21167-0.13229l-2.54-0.71437c-0.15875-0.0529-0.18521 0.23812-0.05292 0.29104l1.6669 0.47625c0.29104 0.55562 0.76729 1.4552 1.0054 2.0108 0.26458 0.635 0.07938 1.4023-0.47625 1.8256l-3.0427 2.4606 1.1642 3.2279c0.05292 0.13229 0.10583 0.34396 0.10583 0.47625 0 0.15875 0 0.58208-0.3175 0.635h-2.884c-0.07937 0-0.13229-0.0529-0.13229-0.13229v-0.29105c0-0.15875 0.10583-0.26458 0.26458-0.3175l1.0583-0.29104-1.2965-3.3073c-0.13229-0.39687-0.02646-0.82021 0.29104-1.0848l2.2754-2.249-1.7992-3.5719c-0.3175-0.60855-0.18521-1.2965 0.26458-1.7727 0.50271-0.52917 1.2965-0.50271 1.9579-0.26459l2.7252 1.0583c0.23812 0.10583 0.47625 0.21166 0.66146 0.37041l2.1696 1.7727c0.29104 0.21167 0.42333 0.52917 0.23812 0.84667-0.21167 0.42333-0.68792 0.635-1.0319 0.37042zm-1.8785 1.4288c-0.10583 0.34395-0.3175 0.66145-0.60854 0.87312l-0.9525 0.76729 0.37042 1.3494c0.07938 0.34396 0.34396 0.58208 0.635 0.68791l3.2544 1.1906-0.02646 1.3229c0 0.15875 0.05292 0.29104 0.23812 0.37041 0.18521 0.0265 0.42333 0.13229 0.50271 0l1.0054-2.4077c0.05292-0.21166-0.15875-0.39687-0.34396-0.47625-1.1642-0.52916-2.3548-1.0583-3.519-1.614z" clip-rule="evenodd" fill-rule="evenodd"/>
  <path class="st1" d="m57.579 106.73 3.7571-3.7571 0.71438 0.71437c-1.2435 1.2435-2.5135 2.5135-3.7571 3.7571zm4.6302-2.6988-1.5346 1.5346 0.42333 0.42334-0.50271 0.50271-0.42333-0.42334-1.5346 1.5346 1.1642 1.1642 3.5719-3.5719zm-2.4077 0.23813 0.37042-0.37042-0.47625-0.47625c-0.10583-0.10583-0.26458-0.10583-0.37042 0l-1.2965 1.2965c-0.10583 0.10583-0.10583 0.26458 0 0.37041l0.47625 0.47625 0.37042-0.37041-0.29104-0.29104 0.9525-0.9525z" clip-rule="evenodd" fill-rule="evenodd"/>
 </g>
</svg>
