<?xml version="1.0" encoding="UTF-8"?>
<svg width="26.961mm" height="18.097mm" version="1.1" viewBox="0 0 26.961 18.097" xmlns="http://www.w3.org/2000/svg">
 <g transform="translate(-8.232 -78.528)" fill="#274897" stroke-width=".26458">
  <path class="st1" d="m29.081 81.201c-0.07937 0-0.13229 0-0.15875-0.07937l-0.02646-0.18521c0-0.07937 0.05292-0.10583 0.10583-0.15875l0.21167-0.10583c0.05292-0.02646 0.07937-0.07937 0.07937-0.15875-0.07937-1.3229 0.87312-1.9844 1.8521-1.9844 0.82021 0 1.6404 0.44979 1.9579 1.3758 0 0.02646 0.02646 0.02646 0.05292 0.02646 0.05292 0 0.07937 0.02646 0.07937 0.07937l0.07937 0.39688c0 0.05292-0.02646 0.10583-0.07937 0.10583-1.3758 0.23812-2.7517 0.44979-4.154 0.68792" clip-rule="evenodd" fill-rule="evenodd"/>
  <path class="st1" d="m33.076 80.883c-1.1377 0.18521-2.2754 0.37042-3.4131 0.55562 0.07937 0.87312 0.82021 1.5875 1.7198 1.5875 0.9525 0 1.7462-0.76729 1.7462-1.7463-0.02646-0.15875-0.02646-0.29104-0.05292-0.39688" clip-rule="evenodd" fill-rule="evenodd"/>
  <rect class="st0" x="17.069" y="96.176" width="18.124" height=".44979"/>
  <rect class="st0" x="8.232" y="91.519" width="13.838" height=".42333"/>
  <path class="st1" d="m30.907 92.525 0.18521-1.5346 1.6933-0.42334-0.26458 2.0108 0.82021 2.7252c0.13229 0.42333-0.10583 0.87312-0.55562 1.0054-0.07937 0.0265-0.15875 0.0265-0.23812 0.0265-0.34396 0-0.66146-0.23812-0.76729-0.58208l-0.87312-2.884c0-0.10583-0.02646-0.23813 0-0.34396m-6.9056-0.82021c0.02646-0.18521 0.21167-0.29104 0.39688-0.21166l0.635 0.21166 0.29104-0.89958c0.05292-0.15875 0.23812-0.23813 0.39688-0.18521l0.07937 0.0265 1.0054-3.0162c-0.44979-0.29104-0.66146-0.87313-0.47625-1.4288 0.02646-0.0794 0.07937-0.15875 0.18521-0.21167 0.05292-0.0265 0.10583-0.0265 0.15875-0.0265 0.02646 0.42334 0.26458 0.84667 0.66146 1.0583 0.26458 0.13229 0.39688 0.15875 1.2171 0.29104-0.23812 0.34396-0.635 0.52917-1.0583 0.52917l-1.0054 3.0162 0.07937 0.0265c0.15875 0.0529 0.23812 0.23812 0.18521 0.39687l-0.29104 0.89958 0.07937 0.0265c0.02646-0.0794 0.07937-0.15875 0.15875-0.21166l2.7517-2.7781c0.10583-0.10583 0.23812-0.18521 0.39688-0.21167 0 0 2.9898-0.60854 3.3867-0.68791-0.26458 0-2.1431-0.10584-2.4077-0.10584l-0.07937-0.5027c0.34396 0.0265 0.89958-0.21167 1.0848-0.52917 0.15875-0.26458 1.2171-2.1167 1.3758-2.3812l-1.9315 2.0373c-0.15875 0.15875-0.39688 0.23813-0.60854 0.18521l-2.7252-0.50271c-0.39688-0.0794-0.635-0.47625-0.52917-0.84667 0.10583-0.34395 0.42333-0.55562 0.76729-0.47625l2.3019 0.42334 1.7992-1.8521-2.0108 1.2171-0.07937-0.42334c-0.07937-0.52916 0.26458-1.0054 0.76729-1.1112l1.6669-0.29104c0.52917-0.0794 1.0054 0.26459 1.1112 0.76729 0 0.0265 0.84667 4.789 0.84667 4.8419v0.10583c0 0.37042-0.26458 0.68792-0.635 0.79375l-3.4925 0.84667-2.5665 2.6194c-0.21167 0.23813-0.55562 0.29105-0.87312 0.18521-0.18521 0.26459-0.37042 0.55563-0.60854 0.79375-0.34396-0.34396-0.82021-0.58208-1.3229-0.66146-0.26458-0.44979-0.66146-0.8202-1.1112-1.0583-0.05292-0.23812-0.02646-0.47625 0.02646-0.68792zm-4.6302 4.2333c0.15875-0.60855 0.71438-1.0319 1.3494-1.0319-0.05292-1.1377 0.84667-2.0902 1.9844-2.0902 0.87312 0 1.614 0.55563 1.8785 1.3494 1.0848-0.10584 1.9579 0.87312 1.7198 1.9579-0.02646 0.1323-0.15875 0.23813-0.29104 0.23813h-6.35c-0.21167-0.0529-0.37042-0.23813-0.29104-0.42333z" clip-rule="evenodd" fill-rule="evenodd"/>
  <rect class="st0" x="8.232" y="91.519" width="13.838" height=".42333"/>
  <path class="st1" d="m19.08 91.731c0.10583-0.34396 0.42333-0.60854 0.79375-0.60854-0.02646-0.66146 0.50271-1.2435 1.1642-1.2435 0.50271 0 0.9525 0.3175 1.1112 0.79375 0.635-0.0529 1.1642 0.52916 1.0054 1.1377-0.02646 0.0794-0.07937 0.13229-0.18521 0.13229h-3.7306c-0.10583 0-0.18521-0.10584-0.15875-0.21167" clip-rule="evenodd" fill-rule="evenodd"/>
  <path class="st1" d="m11.486 86.201c-0.07937-0.0529-0.13229-0.10583-0.21167-0.15875v-3.2015h2.8575l1.2171 3.3602zm10.848-2.7781-0.3175-0.15875c-0.02646 0-0.02646-0.0265-0.05292-0.0265l-0.89958-0.10583-0.26458-2.0902c0-0.05292-0.05292-0.10583-0.10583-0.13229-0.05292-0.02646-0.13229 0-0.15875 0.02646l-1.5875 1.614c-0.02646 0.02646-0.05292 0.07937-0.05292 0.13229l0.05292 0.21167-1.0848 0.3175-1.4817 3.2015h-0.15875v-0.0265-0.15875h-0.18521l-1.3229-3.8628c-0.02646-0.13229-0.15875-0.23812-0.3175-0.23812h-3.4396c-0.18521 0-0.3175 0.13229-0.3175 0.3175v3.2544c-0.10583-0.0265-0.21167-0.0265-0.34396-0.0265-1.0054 0-1.8256 0.82021-1.8256 1.8256v0.635c0.44979-0.74084 1.2435-1.2436 2.1696-1.2436 1.4023 0 2.5135 1.1377 2.5135 2.5136 0 0.1852-0.02646 0.37041-0.05292 0.55562h1.561c-0.02646-0.13229-0.02646-0.26458-0.02646-0.39687 0-1.0054 0.66146-1.8521 1.5875-2.1167v-0.15875h0.68792l1.5346-3.3338 0.66146-0.18521 0.07937 0.42333c0 0.0529 0.02646 0.0794 0.07937 0.10584 0.02646 0.0265 0.05292 0.0265 0.07937 0.0265h0.02646l2.9369-0.58209c0.07937-0.0265 0.13229-0.0794 0.13229-0.13229 0-0.0794-0.05292-0.13229-0.10583-0.18521zm-5.3446 7.4612c-0.68792 0-1.2171-0.55562-1.2171-1.2171 0-0.68792 0.55562-1.2171 1.2171-1.2171 0.68792 0 1.2171 0.55562 1.2171 1.2171s-0.52917 1.2171-1.2171 1.2171zm0-3.2544c-1.1112 0-2.0373 0.89958-2.0373 2.0373 0 1.1112 0.92604 2.0373 2.0373 2.0373s2.0373-0.92604 2.0373-2.0373c0-1.1377-0.92604-2.0373-2.0373-2.0373zm-6.4294 3.4925c-0.84667 0-1.5346-0.68792-1.5346-1.5346 0-0.84667 0.68792-1.5346 1.5346-1.5346 0.84667 0 1.5346 0.68792 1.5346 1.5346 0 0.84666-0.68792 1.5346-1.5346 1.5346zm0-3.8629c-1.2965 0-2.3283 1.0583-2.3283 2.3283 0 1.2964 1.0583 2.3283 2.3283 2.3283 1.2965 0 2.3283-1.0583 2.3283-2.3283 0.02646-1.27-1.0319-2.3283-2.3283-2.3283z" clip-rule="evenodd" fill-rule="evenodd"/>
 </g>
</svg>
