<?xml version="1.0" encoding="UTF-8"?>
<svg width="11.413mm" height="12.594mm" version="1.1" viewBox="0 0 11.413 12.594" xmlns="http://www.w3.org/2000/svg">
 <g transform="translate(12.235 -153.18)">
  <g transform="matrix(.26458 0 0 .26458 -119.87 22.65)" stroke-width=".41319">
   <rect class="st0" x="407.63" y="502.19" width="41.361" height="24.378" fill="#284998"/>
   <rect class="st0" x="413.04" y="494.17" width="30.576" height="24.378" fill="#284998"/>
   <path class="st8" d="m412.17 493.35v8.0986h-5.3715v31.444h15.288v6.2806h-6.2806v0.90902h25.122v-0.90902h-6.2806v-6.2806h15.288v-31.444h-5.3715v-8.0986zm0.90903 0.90903h30.535v2.6858h-30.535zm0.86771 0.90902v0.90903h2.6858v-0.90903zm24.255 0v0.90903h0.90903v-0.90903zm1.818 0v0.90903h0.90903v-0.90903zm1.7767 0v0.90903h0.90903v-0.90903zm1.818 15.247v10.784h-30.535v-23.346h30.535v12.561m-29.667-11.693v0.90903h2.6858v-0.90903zm0 1.818v0.90903h0.90902v-0.90903zm1.818 0v0.90903h0.90903v-0.90903zm-8.0986 1.7767h4.5038v1.7767h-2.6858v20.66h37.725v-20.66h-2.7271v-1.7767h4.5038v24.255h-41.319zm6.2806 0v0.90903h0.90902v-0.90903zm1.818 0v0.90903h0.90903v-0.90903zm-1.818 1.8181v0.90903h0.90902v-0.90903zm1.818 0v0.90903h0.90903v-0.90903zm-5.4128 0.90903h1.7767v17.065h32.353v-17.065h1.7767v18.883h-35.948v-18.883zm3.5948 0.8677v0.90903h0.90902v-0.90903zm1.818 0v0.90903h0.90903v-0.90903zm-1.818 1.8181v0.90903h0.90902v-0.90903zm1.818 0v0.90903h0.90903v-0.90903zm-8.0986 19.751h41.319v4.5038h-41.319zm15.288 5.4128h10.784v6.2806h-10.784z" fill="#fff"/>
   <path class="st9" d="m422.58 501.32v1.1156h0.28924v-0.41319h11.115v0.41319h0.28924v-1.1156h-0.28924v0.4132h-11.115v-0.4132zm5.826 1.157-5.826 3.3882v6.7351l5.826 3.3882 5.826-3.3882v-6.7351zm6.4045 0.0413v0.28924h0.41319v12.892h-0.41319v0.28924h1.1156v-0.28924h-0.4132v-12.892h0.4132v-0.28924zm-6.4045 0.28924 5.4129 3.1403-5.4129 3.1403-5.4128-3.1403zm-5.5368 3.3882 5.4128 3.1403v6.2806l-5.4128-3.1403zm11.115 0v6.2806l-5.4128 3.1403v-6.2806z" fill="#fff" stroke="#fff" stroke-miterlimit="10"/>
   <rect class="st0" x="407.67" y="527.48" width="41.319" height="4.5038" fill="#284998"/>
   <rect class="st0" x="422.96" y="532.89" width="10.784" height="6.2806" fill="#284998"/>
   <rect class="st8" x="425.89" y="528.68" width="4.8344" height="2.1073" fill="#fff"/>
   <rect class="st0" x="415.77" y="540.04" width="25.164" height=".90903" fill="#284998"/>
  </g>
 </g>
 <style type="text/css">.st0{fill:#284998;}
	.st1{fill:#274897;}
	.st2{fill-rule:evenodd;clip-rule:evenodd;fill:#274897;}
	.st3{fill:none;stroke:#B6B9C1;stroke-width:3.5;stroke-linecap:round;stroke-miterlimit:10;}
	.st4{fill:none;stroke:#B6B9C1;stroke-width:3.5;stroke-linecap:round;stroke-miterlimit:10;stroke-dasharray:7.0649,7.0649;}
	.st5{fill:none;stroke:#B6B9C1;stroke-width:3.5;stroke-linecap:round;stroke-miterlimit:10;stroke-dasharray:8;}
	.st6{fill:none;stroke:#B6B9C1;stroke-width:3;stroke-linecap:round;stroke-miterlimit:10;stroke-dasharray:8;}
	.st7{fill:#284998;stroke:#284998;stroke-width:3.5;stroke-linecap:round;stroke-miterlimit:10;}
	.st8{fill:#FFFFFF;}
	.st9{fill:#FFFFFF;stroke:#FFFFFF;stroke-miterlimit:10;}</style>
</svg>
