<?xml version="1.0" encoding="UTF-8"?>
<svg width="26.961mm" height="18.071mm" version="1.1" viewBox="0 0 26.961 18.071" xmlns="http://www.w3.org/2000/svg">
 <g transform="translate(2.1716 -68.028)" fill="#274897" stroke-width=".26458">
  <path class="st1" d="m16.984 70.7c0.07937 0 0.13229 0 0.15875-0.0794l0.02646-0.18521c0-0.0794-0.05292-0.10583-0.10583-0.15875l-0.21167-0.10583c-0.05292-0.0265-0.07937-0.0794-0.07937-0.15875 0.07937-1.3229-0.87312-1.9844-1.8521-1.9844-0.82021 0-1.6404 0.44979-1.9579 1.3758 0 0.0265-0.02646 0.0265-0.05292 0.0265-0.05292 0-0.07937 0.0265-0.07937 0.0794l-0.07938 0.39688c0 0.0529 0.02646 0.10583 0.07938 0.10583 1.3758 0.23813 2.7781 0.44979 4.154 0.68792" clip-rule="evenodd" fill-rule="evenodd"/>
  <path class="st1" d="m13.016 70.356c1.1377 0.18521 2.2754 0.37041 3.4131 0.55562-0.07937 0.87313-0.82021 1.5875-1.7198 1.5875-0.9525 0-1.7462-0.76729-1.7462-1.7462 0-0.13229 0.02646-0.26458 0.05292-0.39687" clip-rule="evenodd" fill-rule="evenodd"/>
  <rect class="st0" x="6.6655" y="85.649" width="18.124" height=".44979"/>
  <rect class="st0" x="-2.1716" y="80.993" width="13.838" height=".42333"/>
  <g clip-rule="evenodd" fill-rule="evenodd">
   <path class="st1" d="m20.344 75.304 0.42333-0.71438c0.02646-0.0529 0.02646-0.10583 0.02646-0.13229 0-0.0529-0.05292-0.0794-0.07938-0.10583-0.02646-0.0265-0.05292-0.0265-0.07937-0.0265 0 0.0265 0.02646 0.0265 0.02646 0.0529 0 0.0529 0 0.10583-0.02646 0.13229l-0.66146 1.1642c-0.05292 0.0794-0.15875 0.10584-0.23812 0.0794l-0.37042-0.21166-0.34396 0.58208s0 0.0265 0.02646 0.0265c0.02646 0.0794 0 0.15875-0.02646 0.23813l-0.50271 0.87312c-0.07937 0.15875-0.26458 0.18521-0.42333 0.10583-0.15875-0.0794-0.18521-0.26458-0.10583-0.42333l0.50271-0.87312c0.05292-0.0794 0.13229-0.1323 0.23812-0.15875l0.42333-0.74084c0.05292-0.0794 0.15875-0.10583 0.23812-0.0794l0.37042 0.21167 0.15875-0.29104-0.89958-0.52917c-0.42333-0.23812-0.42333-0.635 0-0.89958l2.1431-1.2436c0.42333-0.23812 0.76729-0.0529 0.76729 0.44979v2.4871c0 0.47625-0.34396 0.68791-0.76729 0.44979z"/>
   <path class="st1" d="m20.741 84.565h-2.9369c-0.13229 0-0.23812 0.10584-0.23812 0.23813v1.0583c0 0.13229 0.10583 0.23813 0.23812 0.23813h2.9369c0.13229 0 0.23812-0.10584 0.23812-0.23813v-1.0583c0-0.13229-0.10583-0.23813-0.23812-0.23813"/>
   <path class="st1" d="m24.551 84.565h-2.9369c-0.13229 0-0.23812 0.10584-0.23812 0.23813v1.0583c0 0.13229 0.10583 0.23813 0.23812 0.23813h2.9369c0.13229 0 0.23812-0.10584 0.23812-0.23813v-1.0583c0-0.13229-0.10583-0.23813-0.23812-0.23813"/>
   <path class="st1" d="m24.551 80.755h-2.9369c-0.13229 0-0.23812 0.10584-0.23812 0.23813v1.0583c0 0.13229 0.10583 0.23813 0.23812 0.23813h2.9369c0.13229 0 0.23812-0.10584 0.23812-0.23813v-1.0583c0-0.13229-0.10583-0.23813-0.23812-0.23813"/>
   <path class="st1" d="m20.741 80.755h-2.9369c-0.13229 0-0.23812 0.10584-0.23812 0.23813v1.0583c0 0.13229 0.10583 0.23813 0.23812 0.23813h2.9369c0.13229 0 0.23812-0.10584 0.23812-0.23813v-1.0583c0-0.13229-0.10583-0.23813-0.23812-0.23813"/>
   <path class="st1" d="m19.471 82.898v1.0583c0 0.13229 0.10583 0.23813 0.23812 0.23813h2.9369c0.13229 0 0.23812-0.10584 0.23812-0.23813v-1.0583c0-0.13229-0.10583-0.23813-0.23812-0.23813h-2.9369c-0.13229 0-0.23812 0.10584-0.23812 0.23813"/>
   <path class="st1" d="m19.471 79.088v1.0583c0 0.13229 0.10583 0.23813 0.23812 0.23813h2.9369c0.13229 0 0.23812-0.10584 0.23812-0.23813v-1.0583c0-0.13229-0.10583-0.23813-0.23812-0.23813h-2.9369c-0.13229 0-0.23812 0.10584-0.23812 0.23813"/>
   <path class="st1" d="m24.551 82.66h-1.1112c-0.13229 0-0.23812 0.10584-0.23812 0.23813v1.0583c0 0.13229 0.10583 0.23813 0.23812 0.23813h1.1112c0.13229 0 0.23812-0.10584 0.23812-0.23813v-1.0583c0-0.13229-0.10583-0.23813-0.23812-0.23813"/>
   <path class="st1" d="m24.551 78.85h-1.1112c-0.13229 0-0.23812 0.10584-0.23812 0.23813v1.0583c0 0.13229 0.10583 0.23813 0.23812 0.23813h1.1112c0.13229 0 0.23812-0.10584 0.23812-0.23813v-1.0583c0-0.13229-0.10583-0.23813-0.23812-0.23813"/>
   <path class="st1" d="m18.122 76.415-2.3548-0.37042-0.76729-1.7198 1.0319 1.27 0.50271 0.0794v-1.8256c0-0.52916-0.42333-0.97896-0.97896-0.97896h-1.7198c-0.52917 0-0.97896 0.42334-0.97896 0.97896v4.4186l0.3175 3.175-1.3494 3.3073c-0.15875 0.39687 0.02646 0.87312 0.42333 1.0319 0.39688 0.15875 0.87312-0.0265 1.0319-0.42333l1.4288-3.4925c0.05292-0.13229 0.07937-0.26458 0.05292-0.39688l-0.05292-2.0638h0.29104l0.37042 1.7727-0.79375 3.7042c-0.07937 0.42333 0.18521 0.84667 0.60854 0.92604 0.42333 0.0794 0.84667-0.18521 0.92604-0.60854l0.82021-3.8365c0.02646-0.0794 0.02646-0.18521 0-0.26458-0.42333-3.2279-0.39688-3.0162-0.39688-3.0427-1.614-0.26458-1.4288-0.23813-1.4817-0.23813-0.52917-0.10583-0.82021-0.55562-0.87312-0.76729l-0.39688-1.9844 0.84667 1.8785c0.10583 0.21167 0.29104 0.37042 0.52917 0.39687l2.7252 0.4498c0.34396 0.0529 0.66146-0.15875 0.76729-0.47625 0.13229-0.39688-0.13229-0.82021-0.52917-0.89959"/>
   <path class="st1" d="m5.7924 77.553c-0.05292 0-0.10583-0.0529-0.10583-0.10583v-0.39687c0-0.0529 0.05292-0.10584 0.10583-0.10584h0.50271v-0.3175c0-0.0529 0.05292-0.10583 0.10584-0.10583h3.466c0.05292 0 0.10583 0.0529 0.10583 0.10583v0.3175h0.50271c0.05292 0 0.10583 0.0529 0.10583 0.10584v0.39687c0 0.0529-0.05292 0.10583-0.10583 0.10583h-0.10583v3.8629h-4.4715v-3.8629zm3.3602 2.9633c0 0.0529 0.05292 0.10583 0.10583 0.10583h0.60854c0.05292 0 0.10583-0.0529 0.10583-0.10583v-0.60854c0-0.0529-0.05292-0.10584-0.10583-0.10584h-0.60854c-0.05292 0-0.10583 0.0529-0.10583 0.10584zm0-1.0054c0 0.0529 0.05292 0.10584 0.10583 0.10584h0.60854c0.05292 0 0.10583-0.0529 0.10583-0.10584v-0.635c0-0.0529-0.05292-0.10583-0.10583-0.10583h-0.60854c-0.05292 0-0.10583 0.0529-0.10583 0.10583zm0-1.0319c0 0.0529 0.05292 0.10583 0.10583 0.10583h0.60854c0.05292 0 0.10583-0.0529 0.10583-0.10583v-0.60854c0-0.0529-0.05292-0.10584-0.10583-0.10584h-0.60854c-0.05292 0-0.10583 0.0529-0.10583 0.10584zm-1.4288 2.3548h0.82021v-0.92604c0-0.0529-0.05292-0.10584-0.10584-0.10584h-0.60854c-0.05292 0-0.10584 0.0529-0.10584 0.10584zm0-1.3229c0 0.0529 0.05292 0.10584 0.10584 0.10584h0.60854c0.05292 0 0.10584-0.0529 0.10584-0.10584v-0.635c0-0.0529-0.05292-0.10583-0.10584-0.10583h-0.60854c-0.05292 0-0.10584 0.0529-0.10584 0.10583zm0-1.0319c0 0.0529 0.05292 0.10583 0.10584 0.10583h0.60854c0.05292 0 0.10584-0.0529 0.10584-0.10583v-0.60854c0-0.0529-0.05292-0.10584-0.10584-0.10584h-0.60854c-0.05292 0-0.10584 0.0529-0.10584 0.10584zm-1.4288 2.0373c0 0.0529 0.05292 0.10583 0.10584 0.10583h0.60854c0.05292 0 0.10584-0.0529 0.10584-0.10583v-0.60854c0-0.0529-0.05292-0.10584-0.10584-0.10584h-0.60854c-0.05292 0-0.10584 0.0529-0.10584 0.10584zm0-1.0054c0 0.0529 0.05292 0.10584 0.10584 0.10584h0.60854c0.05292 0 0.10584-0.0529 0.10584-0.10584v-0.635c0-0.0529-0.05292-0.10583-0.10584-0.10583h-0.60854c-0.05292 0-0.10584 0.0529-0.10584 0.10583zm0-1.0319c0 0.0529 0.05292 0.10583 0.10584 0.10583h0.60854c0.05292 0 0.10584-0.0529 0.10584-0.10583v-0.60854c0-0.0529-0.05292-0.10584-0.10584-0.10584h-0.60854c-0.05292 0-0.10584 0.0529-0.10584 0.10584z"/>
   <path class="st1" d="m6.057 80.966v-9.7631c0-0.13229-0.10583-0.23812-0.23812-0.23812h-0.71438v-0.71437c0-0.1323-0.10583-0.23813-0.23812-0.23813h-4.7625c-0.13229 0-0.23812 0.10583-0.23812 0.23813v0.71437h-0.71438c-0.13229 0-0.23812 0.10583-0.23812 0.23812v10.239h2.1431c0.13229 0 0.23812-0.10583 0.23812-0.23812v-1.1906h2.3812v1.1906c0 0.13229 0.10584 0.23812 0.23812 0.23812h2.1431zm-4.7625-2.1431c0 0.13229-0.10583 0.23812-0.23812 0.23812h-0.9525c-0.13229 0-0.23812-0.10583-0.23812-0.23812v-0.9525c0-0.1323 0.10584-0.23813 0.23812-0.23813h0.9525c0.13229 0 0.23812 0.10583 0.23812 0.23813zm0-1.905c0 0.1323-0.10583 0.23813-0.23812 0.23813h-0.9525c-0.13229 0-0.23812-0.10583-0.23812-0.23813v-0.9525c0-0.13229 0.10584-0.23812 0.23812-0.23812h0.9525c0.13229 0 0.23812 0.10583 0.23812 0.23812zm0-1.905c0 0.1323-0.10583 0.23813-0.23812 0.23813h-0.9525c-0.13229 0-0.23812-0.10583-0.23812-0.23813v-0.9525c0-0.13229 0.10584-0.23812 0.23812-0.23812h0.9525c0.13229 0 0.23812 0.10583 0.23812 0.23812zm0-1.905c0 0.1323-0.10583 0.23813-0.23812 0.23813h-0.9525c-0.13229 0-0.23812-0.10583-0.23812-0.23813v-0.9525c0-0.13229 0.10584-0.23812 0.23812-0.23812h0.9525c0.13229 0 0.23812 0.10583 0.23812 0.23812zm1.905 5.715c0 0.13229-0.10583 0.23812-0.23812 0.23812h-0.9525c-0.13229 0-0.23812-0.10583-0.23812-0.23812v-0.9525c0-0.1323 0.10584-0.23813 0.23812-0.23813h0.9525c0.13229 0 0.23812 0.10583 0.23812 0.23813zm0-1.905c0 0.1323-0.10583 0.23813-0.23812 0.23813h-0.9525c-0.13229 0-0.23812-0.10583-0.23812-0.23813v-0.9525c0-0.13229 0.10584-0.23812 0.23812-0.23812h0.9525c0.13229 0 0.23812 0.10583 0.23812 0.23812zm0-1.905c0 0.1323-0.10583 0.23813-0.23812 0.23813h-0.9525c-0.13229 0-0.23812-0.10583-0.23812-0.23813v-0.9525c0-0.13229 0.10584-0.23812 0.23812-0.23812h0.9525c0.13229 0 0.23812 0.10583 0.23812 0.23812zm0-1.905c0 0.1323-0.10583 0.23813-0.23812 0.23813h-0.9525c-0.13229 0-0.23812-0.10583-0.23812-0.23813v-0.9525c0-0.13229 0.10584-0.23812 0.23812-0.23812h0.9525c0.13229 0 0.23812 0.10583 0.23812 0.23812zm1.905 5.715c0 0.13229-0.10583 0.23812-0.23812 0.23812h-0.9525c-0.13229 0-0.23812-0.10583-0.23812-0.23812v-0.9525c0-0.1323 0.10584-0.23813 0.23812-0.23813h0.9525c0.13229 0 0.23812 0.10583 0.23812 0.23813zm0-1.905c0 0.1323-0.10583 0.23813-0.23812 0.23813h-0.9525c-0.13229 0-0.23812-0.10583-0.23812-0.23813v-0.9525c0-0.13229 0.10584-0.23812 0.23812-0.23812h0.9525c0.13229 0 0.23812 0.10583 0.23812 0.23812zm0-1.905c0 0.1323-0.10583 0.23813-0.23812 0.23813h-0.9525c-0.13229 0-0.23812-0.10583-0.23812-0.23813v-0.9525c0-0.13229 0.10584-0.23812 0.23812-0.23812h0.9525c0.13229 0 0.23812 0.10583 0.23812 0.23812zm0-1.905c0 0.1323-0.10583 0.23813-0.23812 0.23813h-0.9525c-0.13229 0-0.23812-0.10583-0.23812-0.23813v-0.9525c0-0.13229 0.10584-0.23812 0.23812-0.23812h0.9525c0.13229 0 0.23812 0.10583 0.23812 0.23812z"/>
  </g>
 </g>
</svg>
